<svg width="100%" height="100%" viewBox="0 0 820 781" fill="none" xmlns="http://www.w3.org/2000/svg">
<g clip-path="url(#clip0)">
<path d="M496.318 43.8183L69.1064 135.523L195.757 726.049L622.968 634.345L496.318 43.8183Z" fill="#E0E0E0"/>
<g opacity="0.5">
<path opacity="0.5" d="M491.249 55.3686L78.4722 143.957L200.864 714.518L613.641 625.93L491.249 55.3686Z" fill="url(#paint0_linear)"/>
</g>
<path d="M486.886 60.6799L84.6221 147.029L204.288 704.989L606.552 618.64L486.886 60.6799Z" fill="#FAFAFA"/>
<path d="M380.873 58.1345L181.315 100.971L191.687 149.333L391.245 106.496L380.873 58.1345Z" fill="url(#paint1_linear)"/>
<path d="M270.957 32.3179C255.55 35.6287 245.802 51.1025 249.191 66.8763C252.581 82.6501 267.808 92.7726 283.185 89.4618C298.562 86.151 308.34 70.6772 304.95 54.9034C301.561 39.1295 286.364 29.0071 270.957 32.3179ZM280.625 77.4289C277.369 78.2058 273.955 77.9951 270.819 76.8238C267.683 75.6525 264.967 73.5736 263.016 70.8519C261.065 68.1303 259.969 64.8892 259.866 61.5418C259.763 58.1944 260.659 54.8922 262.44 52.0561C264.22 49.2199 266.804 46.9783 269.862 45.617C272.921 44.2556 276.315 43.836 279.613 44.4118C282.911 44.9876 285.962 46.5327 288.379 48.8501C290.796 51.1674 292.468 54.1522 293.183 57.424C293.677 59.5627 293.743 61.7779 293.379 63.9425C293.014 66.107 292.226 68.1782 291.059 70.0371C289.892 71.896 288.37 73.5059 286.579 74.7744C284.789 76.0429 282.765 76.945 280.625 77.4289Z" fill="url(#paint2_linear)"/>
<path d="M378.326 56.5114L182.971 98.4459L192.886 144.675L388.241 102.741L378.326 56.5114Z" fill="#B4BBB9"/>
<path d="M270.957 32.3179C265.557 33.4774 260.622 36.2127 256.776 40.1781C252.93 44.1434 250.346 49.1606 249.35 54.5953C248.354 60.03 248.992 65.638 251.182 70.7103C253.372 75.7826 257.016 80.0914 261.654 83.0917C266.291 86.092 271.714 87.6491 277.236 87.5662C282.758 87.4833 288.132 85.7641 292.677 82.6259C297.223 79.4878 300.736 75.0716 302.773 69.9359C304.81 64.8001 305.279 59.1754 304.121 53.7731C303.351 50.1857 301.883 46.7851 299.8 43.7653C297.717 40.7456 295.06 38.1659 291.981 36.1735C288.901 34.1812 285.459 32.8152 281.852 32.1537C278.245 31.4921 274.543 31.5479 270.957 32.3179ZM280.195 75.4284C277.078 76.0974 273.833 75.8268 270.87 74.6507C267.907 73.4746 265.359 71.4458 263.549 68.8209C261.738 66.196 260.747 63.093 260.699 59.9042C260.651 56.7154 261.55 53.5841 263.281 50.9063C265.013 48.2285 267.499 46.1244 270.425 44.8603C273.352 43.5961 276.587 43.2286 279.723 43.8042C282.858 44.3798 285.753 45.8726 288.04 48.094C290.327 50.3154 291.905 53.1654 292.573 56.2837C293.469 60.4645 292.668 64.8301 290.347 68.4203C288.026 72.0105 284.374 74.5313 280.195 75.4284Z" fill="#B4BBB9"/>
<path d="M694.775 116.938H257.84V720.905H694.775V116.938Z" fill="#E0E0E0"/>
<g opacity="0.5">
<path opacity="0.5" d="M687.396 127.151H265.228V710.703H687.396V127.151Z" fill="url(#paint3_linear)"/>
</g>
<path d="M682.017 131.452H270.597V702.111H682.017V131.452Z" fill="white"/>
<path d="M578.897 106.706H374.797V156.168H578.897V106.706Z" fill="url(#paint4_linear)"/>
<path d="M476.847 58.4242C461.09 58.4242 448.312 71.5074 448.312 87.6513C448.312 103.795 461.09 116.878 476.847 116.878C492.604 116.878 505.381 103.795 505.381 87.6513C505.381 71.5074 492.604 58.4242 476.847 58.4242ZM476.847 104.515C473.497 104.595 470.2 103.674 467.375 101.87C464.551 100.066 462.329 97.4606 460.991 94.387C459.654 91.3133 459.262 87.9106 459.867 84.6134C460.472 81.3162 462.045 78.274 464.385 75.8753C466.726 73.4767 469.728 71.8303 473.009 71.1465C476.289 70.4627 479.698 70.7725 482.802 72.0363C485.906 73.3001 488.562 75.4606 490.433 78.2419C492.303 81.0232 493.303 84.2991 493.304 87.6513C493.336 92.0572 491.622 96.2965 488.538 99.4418C485.454 102.587 481.251 104.383 476.847 104.435V104.515Z" fill="url(#paint5_linear)"/>
<path d="M576.748 104.585H376.947V151.867H576.748V104.585Z" fill="#B4BBB9"/>
<path d="M476.847 58.4242C471.324 58.4242 465.925 60.0627 461.333 63.1324C456.741 66.2021 453.162 70.5653 451.048 75.67C448.934 80.7748 448.381 86.392 449.459 91.8112C450.536 97.2304 453.196 102.208 457.101 106.115C461.007 110.022 465.982 112.683 471.399 113.761C476.816 114.839 482.431 114.286 487.533 112.171C492.636 110.057 496.997 106.476 500.065 101.882C503.134 97.2877 504.771 91.8864 504.771 86.361C504.771 78.9517 501.829 71.8459 496.593 66.6067C491.356 61.3675 484.253 58.4242 476.847 58.4242ZM476.847 102.485C473.662 102.481 470.549 101.533 467.902 99.7606C465.256 97.9882 463.193 95.471 461.975 92.5267C460.757 89.5824 460.438 86.3431 461.059 83.2178C461.68 80.0925 463.213 77.2213 465.464 74.9667C467.714 72.7122 470.582 71.1754 473.706 70.5503C476.829 69.9253 480.067 70.2401 483.012 71.4549C485.956 72.6697 488.475 74.7301 490.25 77.376C492.024 80.0219 492.976 83.1345 492.984 86.321C492.982 88.4392 492.564 90.5365 491.752 92.4929C490.94 94.4493 489.751 96.2265 488.253 97.7229C486.754 99.2194 484.975 100.406 483.018 101.214C481.061 102.023 478.964 102.438 476.847 102.435V102.485Z" fill="#B4BBB9"/>
<g opacity="0.5">
<path opacity="0.5" d="M19.0271 737.229H15.2671V758.565H19.0271V737.229Z" fill="#47E6B1"/>
<path opacity="0.5" d="M27.8145 749.781V746.021H6.48866V749.781H27.8145Z" fill="#47E6B1"/>
</g>
<g opacity="0.5">
<path opacity="0.5" d="M455.162 0H451.402V21.3352H455.162V0Z" fill="#47E6B1"/>
<path opacity="0.5" d="M463.95 12.5421V8.7821L442.624 8.7821V12.5421L463.95 12.5421Z" fill="#47E6B1"/>
</g>
<path opacity="0.5" d="M770.93 772.748C769.893 772.296 769.058 771.479 768.584 770.452C768.11 769.425 768.031 768.259 768.36 767.177C768.413 767.011 768.447 766.84 768.46 766.666C768.49 766.171 768.359 765.679 768.088 765.264C767.817 764.848 767.419 764.531 766.954 764.36C766.488 764.188 765.98 764.171 765.504 764.311C765.028 764.45 764.61 764.74 764.311 765.136C764.207 765.275 764.12 765.427 764.051 765.586C763.6 766.624 762.783 767.459 761.756 767.933C760.729 768.407 759.564 768.486 758.482 768.157C758.317 768.104 758.145 768.07 757.972 768.057C757.477 768.027 756.985 768.157 756.57 768.429C756.155 768.7 755.838 769.098 755.666 769.564C755.495 770.03 755.477 770.538 755.617 771.014C755.757 771.49 756.046 771.909 756.442 772.208C756.582 772.312 756.733 772.399 756.892 772.468C757.929 772.919 758.764 773.737 759.238 774.764C759.712 775.791 759.791 776.957 759.462 778.039C759.409 778.205 759.375 778.376 759.362 778.549C759.332 779.045 759.462 779.537 759.734 779.952C760.005 780.368 760.403 780.685 760.868 780.856C761.334 781.028 761.842 781.045 762.318 780.905C762.794 780.765 763.212 780.476 763.511 780.08C763.615 779.94 763.702 779.789 763.771 779.63C764.222 778.592 765.039 777.757 766.066 777.283C767.093 776.809 768.258 776.729 769.34 777.059C769.505 777.112 769.677 777.146 769.85 777.159C770.345 777.189 770.837 777.058 771.252 776.787C771.667 776.516 771.984 776.118 772.156 775.652C772.327 775.186 772.344 774.678 772.205 774.202C772.065 773.725 771.776 773.307 771.38 773.008C771.24 772.904 771.089 772.817 770.93 772.748Z" fill="#4D8AF0"/>
<path opacity="0.5" d="M136.643 567.638C135.606 567.186 134.772 566.369 134.298 565.342C133.824 564.315 133.744 563.149 134.074 562.067C134.127 561.901 134.16 561.73 134.174 561.557C134.204 561.061 134.073 560.569 133.802 560.154C133.531 559.738 133.133 559.421 132.667 559.25C132.202 559.078 131.693 559.061 131.218 559.201C130.742 559.34 130.323 559.63 130.025 560.026C129.921 560.165 129.833 560.317 129.765 560.476C129.313 561.514 128.496 562.349 127.47 562.823C126.443 563.297 125.277 563.377 124.196 563.047C124.03 562.994 123.859 562.96 123.686 562.947C123.191 562.917 122.699 563.048 122.284 563.319C121.868 563.59 121.551 563.988 121.38 564.454C121.208 564.92 121.191 565.428 121.331 565.904C121.471 566.381 121.76 566.799 122.156 567.098C122.295 567.202 122.446 567.289 122.606 567.358C123.643 567.81 124.478 568.627 124.951 569.654C125.425 570.681 125.505 571.847 125.175 572.929C125.122 573.095 125.089 573.266 125.075 573.439C125.046 573.935 125.176 574.427 125.447 574.842C125.719 575.258 126.117 575.575 126.582 575.746C127.047 575.918 127.556 575.935 128.032 575.795C128.508 575.655 128.926 575.366 129.225 574.97C129.329 574.83 129.416 574.679 129.485 574.52C129.936 573.482 130.753 572.647 131.78 572.173C132.807 571.699 133.972 571.619 135.054 571.949C135.219 572.002 135.39 572.036 135.563 572.049C136.059 572.079 136.55 571.949 136.966 571.677C137.381 571.406 137.698 571.008 137.869 570.542C138.041 570.076 138.058 569.568 137.918 569.092C137.778 568.615 137.489 568.197 137.093 567.898C136.954 567.794 136.803 567.707 136.643 567.638Z" fill="#FDD835"/>
<path opacity="0.5" d="M664.95 68.1966C663.913 67.745 663.079 66.9278 662.605 65.9005C662.131 64.8732 662.051 63.7075 662.381 62.6252C662.434 62.4597 662.468 62.2885 662.481 62.1151C662.511 61.6197 662.38 61.1279 662.109 60.7124C661.838 60.2969 661.44 59.9799 660.974 59.8082C660.509 59.6366 660.001 59.6194 659.525 59.7592C659.049 59.8991 658.63 60.1885 658.332 60.5847C658.228 60.7241 658.14 60.8751 658.072 61.0348C657.62 62.0722 656.804 62.9073 655.777 63.3813C654.75 63.8553 653.585 63.9351 652.503 63.6055C652.337 63.5523 652.166 63.5187 651.993 63.5054C651.498 63.4756 651.006 63.606 650.591 63.8775C650.175 64.1489 649.859 64.5469 649.687 65.0126C649.515 65.4782 649.498 65.9868 649.638 66.4629C649.778 66.9391 650.067 67.3576 650.463 67.6565C650.602 67.7605 650.753 67.8477 650.913 67.9165C651.95 68.3681 652.785 69.1853 653.259 70.2126C653.732 71.2399 653.812 72.4056 653.483 73.4879C653.429 73.6534 653.396 73.8246 653.383 73.998C653.353 74.4934 653.483 74.9852 653.754 75.4007C654.026 75.8162 654.424 76.1332 654.889 76.3049C655.355 76.4765 655.863 76.4937 656.339 76.3539C656.815 76.214 657.233 75.9246 657.532 75.5284C657.636 75.389 657.723 75.238 657.792 75.0783C658.243 74.0409 659.06 73.2058 660.087 72.7318C661.114 72.2578 662.279 72.178 663.361 72.5076C663.526 72.5608 663.697 72.5944 663.871 72.6077C664.366 72.6375 664.857 72.507 665.273 72.2356C665.688 71.9642 666.005 71.5662 666.176 71.1005C666.348 70.6349 666.365 70.1263 666.225 69.6502C666.086 69.174 665.796 68.7555 665.4 68.4566C665.261 68.3526 665.11 68.2653 664.95 68.1966Z" fill="#FDD835"/>
<path opacity="0.5" d="M812.481 322.078C816.639 322.078 820.01 318.706 820.01 314.547C820.01 310.387 816.639 307.015 812.481 307.015C808.324 307.015 804.953 310.387 804.953 314.547C804.953 318.706 808.324 322.078 812.481 322.078Z" fill="#F55F44"/>
<path opacity="0.5" d="M230.685 754.364C234.843 754.364 238.214 750.991 238.214 746.832C238.214 742.672 234.843 739.3 230.685 739.3C226.527 739.3 223.156 742.672 223.156 746.832C223.156 750.991 226.527 754.364 230.685 754.364Z" fill="#F55F44"/>
<path opacity="0.5" d="M735.167 484.878C739.324 484.878 742.695 481.506 742.695 477.346C742.695 473.186 739.324 469.814 735.167 469.814C731.009 469.814 727.638 473.186 727.638 477.346C727.638 481.506 731.009 484.878 735.167 484.878Z" fill="#F55F44"/>
<path opacity="0.5" d="M87.123 103.905C91.2809 103.905 94.6515 100.533 94.6515 96.3734C94.6515 92.2137 91.2809 88.8416 87.123 88.8416C82.9651 88.8416 79.5945 92.2137 79.5945 96.3734C79.5945 100.533 82.9651 103.905 87.123 103.905Z" fill="#4D8AF0"/>
<path opacity="0.5" d="M7.52853 309.365C11.6864 309.365 15.0571 305.993 15.0571 301.833C15.0571 297.674 11.6864 294.302 7.52853 294.302C3.37064 294.302 0 297.674 0 301.833C0 305.993 3.37064 309.365 7.52853 309.365Z" fill="#47E6B1"/>
</g>
<defs>
<linearGradient id="paint0_linear" x1="407.248" y1="670.225" x2="284.799" y2="99.6762" gradientUnits="userSpaceOnUse">
<stop stop-color="#808080" stop-opacity="0.25"/>
<stop offset="0.54" stop-color="#808080" stop-opacity="0.12"/>
<stop offset="1" stop-color="#808080" stop-opacity="0.1"/>
</linearGradient>
<linearGradient id="paint1_linear" x1="109785" y1="-14302.4" x2="109272" y2="-16693.8" gradientUnits="userSpaceOnUse">
<stop stop-color="#808080" stop-opacity="0.25"/>
<stop offset="0.54" stop-color="#808080" stop-opacity="0.12"/>
<stop offset="1" stop-color="#808080" stop-opacity="0.1"/>
</linearGradient>
<linearGradient id="paint2_linear" x1="32057.5" y1="1631.36" x2="31341.4" y2="-1704.81" gradientUnits="userSpaceOnUse">
<stop stop-color="#808080" stop-opacity="0.25"/>
<stop offset="0.54" stop-color="#808080" stop-opacity="0.12"/>
<stop offset="1" stop-color="#808080" stop-opacity="0.1"/>
</linearGradient>
<linearGradient id="paint3_linear" x1="201386" y1="414758" x2="201386" y2="74308.3" gradientUnits="userSpaceOnUse">
<stop stop-color="#808080" stop-opacity="0.25"/>
<stop offset="0.54" stop-color="#808080" stop-opacity="0.12"/>
<stop offset="1" stop-color="#808080" stop-opacity="0.1"/>
</linearGradient>
<linearGradient id="paint4_linear" x1="97718.3" y1="7829.21" x2="97718.3" y2="5383.32" gradientUnits="userSpaceOnUse">
<stop stop-color="#808080" stop-opacity="0.25"/>
<stop offset="0.54" stop-color="#808080" stop-opacity="0.12"/>
<stop offset="1" stop-color="#808080" stop-opacity="0.1"/>
</linearGradient>
<linearGradient id="paint5_linear" x1="38505.3" y1="10369.2" x2="38505.3" y2="6953.1" gradientUnits="userSpaceOnUse">
<stop stop-color="#808080" stop-opacity="0.25"/>
<stop offset="0.54" stop-color="#808080" stop-opacity="0.12"/>
<stop offset="1" stop-color="#808080" stop-opacity="0.1"/>
</linearGradient>
<clipPath id="clip0">
<rect width="820" height="781" fill="white"/>
</clipPath>
</defs>
</svg>
