<svg width="100%" height="100%" xmlns="http://www.w3.org/2000/svg" viewBox="0 0 537 780" fill="none">
  <path fill="#000" fill-opacity=".1" d="M337.316 469.787c88.17-24.799 152.807-105.8 152.807-201.898 0-115.82-93.89-209.71-209.71-209.71-115.82 0-209.71 93.89-209.71 209.71 0 93.604 61.326 172.885 145.992 199.855l-43.067 276.69 103.218-60.98 103.22 60.98-42.75-274.647z" filter="url(#filter0_f)"/>
  <path fill="url(#ribbon0_linear)" d="M256.461 665.6V326.827l-66.613.706-36.618 399.053L256.461 665.6z"/>
  <path fill="url(#ribbon1_linear)" d="M256.436 665.6V326.827l66.614.706 36.617 399.053L256.436 665.6z"/>
  <path fill="#1E2020" d="M256.553 458.046l1.813 208.46-1.813-.907-1.812.907 1.812-208.46z"/>
  <path stroke="url(#ribbon2_linear)" stroke-opacity=".35" stroke-width=".25" d="M258.366 666.506l-1.813-208.46-1.812 208.46" filter="url(#filter1_f)"/>
  <g filter="url(#filter2_f)">
    <path fill="#fff" fill-opacity=".1" d="M215.289 568.874c0 13.799-11.186 24.984-24.984 24.984-13.798 0-24.984-11.185-24.984-24.984 0-13.798 11.186-24.984 24.984-24.984 13.798 0 24.984 11.186 24.984 24.984z"/>
    <path fill="#fff" fill-opacity=".125" fill-rule="evenodd" d="M214.346 575.563a94.158 94.158 0 0 1-14.799 1.164c-12.118 0-23.676-2.302-34.227-6.474.716 13.157 11.611 23.606 24.947 23.606 11.482 0 21.154-7.745 24.079-18.296z" clip-rule="evenodd"/>
    <ellipse cx="197.191" cy="577.674" fill="#000" fill-opacity=".1" filter="url(#filter3_f)" rx="28.046" ry="28.684"/>
  </g>
  <ellipse cx="190.817" cy="568.75" fill="#fff" fill-opacity=".2" rx="28.046" ry="28.684"/>
  <path fill="#fff" fill-opacity=".1" d="M215.288 568.874c0 13.799-11.185 24.984-24.984 24.984-13.798 0-24.984-11.185-24.984-24.984 0-13.798 11.186-24.984 24.984-24.984 13.799 0 24.984 11.186 24.984 24.984z"/>
  <path fill="#fff" fill-opacity=".125" fill-rule="evenodd" d="M214.346 575.563a94.278 94.278 0 0 1-14.799 1.164c-12.118 0-23.676-2.302-34.227-6.474.716 13.157 11.611 23.605 24.947 23.605 11.482 0 21.154-7.744 24.079-18.295z" clip-rule="evenodd"/>
  <path fill="url(#ribbon3_linear)" fill-rule="evenodd" d="M320.922 539.86c-10.997 0-17.87 5.579-20.619 16.735 4.124-5.578 8.935-7.67 14.433-6.275 3.138.795 5.38 3.104 7.862 5.66 4.043 4.164 8.722 8.983 18.943 8.983 10.996 0 17.869-5.578 20.619-16.735-4.124 5.578-8.935 7.67-14.434 6.276-3.137-.796-5.379-3.105-7.861-5.661-4.043-4.164-8.722-8.983-18.943-8.983zm-20.619 25.103c-10.996 0-17.869 5.578-20.618 16.735 4.123-5.578 8.934-7.67 14.433-6.276 3.137.796 5.379 3.105 7.861 5.661 4.043 4.164 8.722 8.983 18.943 8.983 10.997 0 17.87-5.579 20.619-16.735-4.124 5.578-8.935 7.67-14.433 6.275-3.137-.795-5.38-3.104-7.862-5.66-4.043-4.164-8.722-8.983-18.943-8.983z" clip-rule="evenodd"/>
  <path stroke="#fff" stroke-opacity=".1" stroke-width="2" d="M359.777 552.353c-1.348 3.257-3.177 5.794-5.464 7.65-3.219 2.612-7.446 3.96-12.772 3.96-4.939 0-8.489-1.16-11.284-2.793-2.819-1.647-4.912-3.796-6.942-5.886l-.099-.102c-2.405-2.477-4.821-4.966-8.234-5.832-2.945-.747-5.751-.566-8.376.576-1.375.597-2.68 1.45-3.92 2.544 1.348-3.257 3.177-5.793 5.464-7.65 3.219-2.612 7.446-3.96 12.772-3.96 4.939 0 8.489 1.161 11.284 2.794 2.819 1.647 4.912 3.795 6.942 5.885l.099.102c2.404 2.477 4.821 4.966 8.234 5.832 2.945.747 5.751.566 8.376-.575 1.375-.598 2.68-1.45 3.92-2.545zm-77.71 25.22c1.348-3.257 3.178-5.794 5.464-7.65 3.219-2.612 7.446-3.96 12.772-3.96 4.939 0 8.489 1.16 11.284 2.793 2.819 1.647 4.912 3.796 6.942 5.886l.099.102c2.405 2.477 4.821 4.966 8.234 5.832 2.945.747 5.751.566 8.376-.576 1.375-.597 2.681-1.45 3.92-2.544-1.348 3.257-3.177 5.793-5.464 7.65-3.218 2.612-7.446 3.96-12.772 3.96-4.938 0-8.489-1.161-11.284-2.794-2.818-1.647-4.912-3.795-6.942-5.885l-.099-.102c-2.404-2.477-4.82-4.966-8.233-5.832-2.946-.747-5.752-.566-8.377.575-1.375.598-2.68 1.45-3.92 2.545z"/>
  <path fill="url(#ribbon4_linear)" fill-opacity=".2" d="M14.518 629.804V512.745a2 2 0 0 1 2-2H99.949a2 2 0 0 1 2 2v117.059a2 2 0 0 1-2 2H16.518a2 2 0 0 1-2-2z"/>
  <path stroke="url(#ribbon5_linear)" stroke-opacity=".1" stroke-width="2" d="M15.518 629.804V512.745a1 1 0 0 1 1-1H99.949a1 1 0 0 1 1 1v117.059a1 1 0 0 1-1 1H16.518a1 1 0 0 1-1-1z"/>
  <path stroke="#fff" stroke-opacity=".2" stroke-width="2" d="M34.765 565.801c-.113-19.37-.23-22.542-.84-22.929-.877-.554-.357-.634-5.639.87-4.124 1.174-4.486 1.375-4.85 2.687-.52 1.873-.021 4.822.873 5.165.392.15 1.226.144 1.855-.014l1.144-.288v19.618c0 16.342.112 19.711.67 20.174.393.327 1.793.497 3.397.412 2.64-.138 2.743-.192 3.126-1.679.218-.844.336-11.652.264-24.016zM50.27 591.084c.56-.465.668-4.376.668-24.125 0-21.972-.056-23.599-.827-23.99-.937-.476-8.651 1.319-9.813 2.284-.93.773-.96 5.339-.038 6.104.378.314 1.191.419 1.89.243l1.227-.308.047 18.849c.026 10.367.194 19.38.374 20.03.294 1.064.602 1.197 3.064 1.325 1.612.085 3.014-.085 3.407-.412zM66.062 550.246c0-5.142-.142-6.491-.743-7.093-.409-.409-1.46-.743-2.336-.743-2.351 0-3.064 1.315-3.07 5.662-.006 5.852-.46 8.524-1.445 8.524-1.275 0-2.33 1.315-2.33 2.903 0 2.016.794 3.245 2.1 3.245h1.121l.161 11.468c.152 10.787.225 11.596 1.233 13.643 1.497 3.04 3.179 3.84 7.672 3.649l3.544-.15v-5.202l-2.352-.237c-3.455-.347-3.54-.655-3.548-12.886l-.007-10.285h2.335c2.65 0 2.992-.331 2.992-2.888 0-2.495-.764-3.26-3.258-3.26h-2.07v-6.35zM83.847 574.937c-1.32-6.862-3.9-17.147-4.435-17.683-.806-.806-4.443-.869-5.222-.09-.311.312-.567 1.069-.567 1.682 0 .612 1.735 7.913 3.855 16.223 3.622 14.201 3.82 15.227 3.273 17.053-.576 1.924-.6 1.939-2.42 1.648-2.075-.332-2.817.432-2.817 2.9 0 2.315.97 3.103 4.094 3.329 2.49.18 2.967.065 4.265-1.028.804-.676 1.797-2.069 2.207-3.094.738-1.845 7.393-35.312 7.393-37.178 0-.532-.256-1.223-.567-1.535-.772-.772-3.918-.719-4.579.078-.293.354-1.29 4.764-2.212 9.8-.922 5.036-1.743 9.222-1.824 9.302-.08.081-.28-.553-.444-1.407z"/>
  <path fill="url(#ribbon6_linear)" d="M475.149 559.045l-.026-.011c-.015-.006-.03-.011-.043-.024a.21.21 0 0 1-.052-.175l1.452-8.883 6.814 6.814-7.086 3.015a.144.144 0 0 1-.062.013c-.013 0-.021 0-.028-.003-.01-.003-.018-.011-.036-.029a3.237 3.237 0 0 0-.933-.717zm9.882-.541l7.286 7.285c1.513 1.513 2.27 2.27 2.547 3.145.041.13.074.261.101.393l-17.41-7.372-.027-.011c-.07-.029-.151-.061-.151-.133 0-.071.083-.105.152-.134l.022-.008 7.48-3.165zm9.636 13.161c-.376.707-1.108 1.44-2.35 2.682l-8.211 8.211-10.623-2.212-.056-.01c-.093-.015-.195-.032-.195-.118-.097-.897-.518-1.697-1.231-2.241-.043-.043-.031-.111-.02-.174l.005-.026 1.999-12.265.006-.04c.013-.094.029-.204.115-.204.894-.126 1.661-.563 2.179-1.25.016-.02.028-.039.051-.05.059-.028.133.001.193.026l18.138 7.671zm-12.451 12.783l-13.506 13.505 2.314-14.209.003-.02a.186.186 0 0 1 .011-.052c.018-.046.067-.066.114-.084l.022-.009a3.479 3.479 0 0 0 1.307-.971c.045-.054.1-.103.169-.115a.162.162 0 0 1 .054.002l9.512 1.953zm-16.364 16.364l-1.523 1.522L447.5 578.01l-.019-.026c-.027-.035-.054-.071-.05-.113.003-.03.022-.055.042-.079l.018-.024c.051-.074.095-.149.143-.232l.038-.065.004-.006a.27.27 0 0 1 .096-.112c.04-.021.094-.012.138-.003l18.646 3.846a.307.307 0 0 1 .143.062c.024.024.029.05.035.08a.274.274 0 0 0 .008.037c.273.963.975 1.797 1.924 2.172.053.026.029.085.005.148-.011.028-.023.057-.027.084-.235 1.429-2.251 13.716-2.792 17.033zm-3.18 3.178c-1.122 1.111-1.783 1.698-2.531 1.934a3.748 3.748 0 0 1-2.267 0c-.875-.276-1.632-1.033-3.146-2.547l-16.901-16.901 4.414-6.848c.022-.033.041-.064.074-.087.048-.034.117-.018.173-.001.454.141.883.198 1.34.198.59 0 1.151-.118 1.738-.354.05-.02.102-.032.141.004.019.017.039.04.053.061l16.912 24.541zm-26.475-19.144l-3.878-3.878 7.658-3.267a.167.167 0 0 1 .062-.012c.064 0 .101.063.136.122a5.754 5.754 0 0 0 .244.347l.024.029c.022.032.006.063-.015.096l-4.231 6.563zm-5.593-5.593l-4.906-4.906c-.834-.834-1.439-1.439-1.859-1.96l14.913 3.093.056.01c.093.015.195.032.195.118 0 .093-.11.137-.205.174l-.043.018-8.151 3.453zm-7.623-9.388a3.77 3.77 0 0 1 .17-.931c.277-.875 1.034-1.632 2.547-3.145l6.279-6.279a4217.26 4217.26 0 0 0 8.667 12.534l.025.034c.051.069.107.145.05.201-.275.302-.55.632-.743.992a.3.3 0 0 1-.093.115c-.025.016-.051.01-.079.004h-.004l-16.819-3.525zm10.674-12.033l8.441-8.441c.794.347 3.681 1.567 6.262 2.658 1.956.826 3.737 1.579 4.296 1.82.056.025.108.047.132.103.015.034.008.078 0 .114a3.91 3.91 0 0 0-.085.81c0 .993.389 1.921 1.069 2.625.056.055-.001.136-.05.207l-.026.039-8.569 13.275c-.024.036-.045.069-.081.093-.045.029-.109.016-.162.003a4.254 4.254 0 0 0-1.022-.14c-.306 0-.642.058-.979.118h-.003c-.037.007-.071.013-.101-.009a.39.39 0 0 1-.085-.096l-9.037-13.179zm10.146-10.146l10.927-10.927c1.514-1.514 2.271-2.271 3.146-2.548a3.764 3.764 0 0 1 2.267 0c.875.277 1.632 1.034 3.146 2.548l2.368 2.368-7.772 12.037a.287.287 0 0 1-.077.089c-.047.032-.113.017-.168.002a4.293 4.293 0 0 0-1.181-.168c-.874 0-1.748.32-2.428.864-.05.05-.126.019-.191-.009-1.015-.441-8.908-3.778-10.037-4.256zm23.503-6.91l7.177 7.178-1.728 10.707a2.752 2.752 0 0 0-.003.029c-.003.025-.006.052-.014.071-.017.038-.054.046-.094.055-.013.003-.027.006-.04.011a3.407 3.407 0 0 0-.99.502c-.014.01-.025.022-.036.033-.022.023-.042.045-.076.047a.217.217 0 0 1-.08-.013l-10.935-4.646a.497.497 0 0 0-.022-.009c-.069-.028-.152-.062-.152-.133a4.13 4.13 0 0 0-.557-1.68l-.024-.039c-.054-.087-.111-.178-.067-.266l7.641-11.847zm-7.388 16.175l10.249 4.343c.059.024.119.05.142.109.013.031.007.072.001.106a2.62 2.62 0 0 0-.055.494v.288c0 .07-.074.101-.141.129l-.022.009c-1.624.692-22.798 9.722-22.829 9.722-.033 0-.065 0-.097-.032-.056-.056 0-.137.05-.208a2.71 2.71 0 0 0 .026-.038l8.424-13.042a.46.46 0 0 0 .015-.023c.05-.079.105-.166.196-.166l.085.012c.191.027.36.052.53.052a3.816 3.816 0 0 0 3.178-1.686.299.299 0 0 1 .062-.075c.052-.039.126-.019.186.006zm-11.739 17.262l23.08-9.841s.032 0 .064.032c.127.125.233.211.336.288a.368.368 0 0 0 .051.032c.047.028.095.056.099.106a.199.199 0 0 1-.004.048l-1.978 12.144a.613.613 0 0 0-.007.048c-.013.095-.027.202-.116.202-1.072.063-2.022.672-2.579 1.591l-.009.015c-.026.044-.051.085-.096.108-.038.019-.089.011-.131.002l-18.404-3.797c-.018-.003-.287-.975-.306-.978z"/>
  <path fill="#000" fill-opacity=".1" d="M27.266 652.226a2.55 2.55 0 0 0 2.55 2.55h82.331a2.55 2.55 0 0 0 2.55-2.55v-115.96a2.549 2.549 0 0 0-2.55-2.549H29.815a2.55 2.55 0 0 0-2.55 2.549v115.96z" filter="url(#filter4_f)"/>
  <g fill="#000" fill-opacity=".1" filter="url(#filter5_f)">
    <path d="M491.288 584.192l.01.005c.372.19.683.438.933.717.019.018.027.026.036.029a.15.15 0 0 0 .091-.01l7.085-3.015-6.814-6.814-1.451 8.883a.206.206 0 0 0 .051.175c.007.007.015.011.022.015.007.004.014.006.022.009l.015.006zM508.466 590.941l-7.285-7.285-7.481 3.165-.021.008c-.07.029-.153.063-.153.134 0 .072.081.104.151.133l.028.011 17.409 7.372a3.655 3.655 0 0 0-.101-.393c-.277-.875-1.034-1.632-2.547-3.145zM508.468 599.498c1.241-1.242 1.973-1.974 2.349-2.681l-18.138-7.671c-.061-.025-.134-.054-.193-.026a.116.116 0 0 0-.045.043l-.006.007c-.518.687-1.286 1.124-2.179 1.25-.087 0-.102.11-.115.204l-.006.04-2 12.265-.004.026c-.011.063-.024.131.02.174.712.544 1.133 1.344 1.23 2.241 0 .086.102.103.195.118l.039.006.017.004 10.623 2.212 8.211-8.211.002-.001zM484.86 623.105l13.505-13.505-9.511-1.953a.164.164 0 0 0-.054-.002c-.07.012-.124.061-.17.115a3.476 3.476 0 0 1-1.306.971l-.022.009c-.047.018-.097.038-.115.084a.23.23 0 0 0-.011.052l-.003.02-2.313 14.209zM480.479 627.486l1.523-1.523c.541-3.317 2.556-15.603 2.791-17.032.005-.027.016-.056.027-.085.025-.062.048-.121-.005-.147-.949-.375-1.65-1.209-1.924-2.172l-.006-.027-.002-.01c-.006-.03-.011-.056-.035-.08a.303.303 0 0 0-.143-.062l-18.646-3.846c-.044-.009-.097-.018-.137.003-.046.025-.071.067-.097.112l-.003.006-.039.065c-.048.083-.091.158-.143.232a.326.326 0 0 1-.017.022l-.001.002c-.019.024-.039.049-.041.079-.004.042.023.078.049.113l.008.01.012.016 16.829 24.324zM476.29 631.076c.748-.236 1.41-.824 2.532-1.934l-16.912-24.541a.384.384 0 0 0-.053-.061c-.04-.036-.092-.024-.141-.004a4.57 4.57 0 0 1-1.739.354c-.457 0-.886-.057-1.34-.198-.056-.017-.124-.033-.172.001-.033.023-.053.054-.075.087l-4.413 6.848 16.901 16.901c1.513 1.514 2.27 2.271 3.145 2.547.738.234 1.53.234 2.267 0zM448.468 606.12l3.879 3.878 4.231-6.563c.021-.033.036-.064.015-.096a.39.39 0 0 0-.012-.015l-.012-.014a6.386 6.386 0 0 1-.22-.305l-.014-.024-.011-.018c-.035-.059-.072-.122-.135-.122a.16.16 0 0 0-.062.012l-7.659 3.267zM441.848 599.499l4.905 4.906 8.151-3.453.041-.017.003-.001c.094-.037.204-.081.204-.174 0-.086-.101-.103-.194-.118l-.026-.004-.03-.006-14.914-3.093c.421.521 1.025 1.126 1.86 1.96zM439.3 594.086a3.768 3.768 0 0 0-.169.931l16.818 3.525h.004c.029.006.054.012.079-.004a.3.3 0 0 0 .093-.115c.194-.36.469-.69.744-.992.057-.056 0-.132-.05-.201l-.025-.034a4036.304 4036.304 0 0 1-8.667-12.534l-6.279 6.279c-1.514 1.513-2.271 2.27-2.548 3.145zM458.246 574.543l-8.441 8.441 9.037 13.179a.39.39 0 0 0 .085.096c.03.022.064.016.1.009h.003c.337-.06.673-.118.98-.118.33 0 .688.055 1.022.14.052.013.116.026.162-.003a.3.3 0 0 0 .08-.093l8.569-13.275a.553.553 0 0 1 .024-.035l.002-.004c.049-.07.106-.152.05-.207a3.764 3.764 0 0 1-1.068-2.625c0-.27.028-.54.085-.81.007-.036.015-.081 0-.114-.025-.056-.076-.078-.132-.103-.559-.241-2.34-.994-4.296-1.82l-.057-.024c-2.566-1.085-5.418-2.29-6.205-2.634zM470.878 561.911l-10.928 10.927c1.129.478 9.023 3.815 10.038 4.256.065.028.14.059.19.009a3.944 3.944 0 0 1 2.429-.864c.393 0 .787.056 1.18.168.055.015.122.03.169-.002.034-.023.054-.055.077-.089l7.771-12.037-2.368-2.368c-1.514-1.514-2.27-2.271-3.146-2.548a3.764 3.764 0 0 0-2.267 0c-.875.277-1.632 1.034-3.145 2.548zM490.631 573.106l-7.177-7.178-7.641 11.847c-.044.088.012.179.066.265l.024.04a4.13 4.13 0 0 1 .557 1.68c0 .071.083.105.152.133l.022.009 10.935 4.646a.22.22 0 0 0 .08.013c.034-.002.055-.024.076-.047.011-.011.022-.023.036-.033a3.432 3.432 0 0 1 1.031-.513c.039-.009.076-.017.093-.055a.13.13 0 0 0 .01-.035.44.44 0 0 0 .004-.036.254.254 0 0 1 .004-.029l1.728-10.707zM486.314 586.446l-10.249-4.343c-.06-.025-.134-.045-.185-.006-.027.021-.044.047-.063.075a3.814 3.814 0 0 1-3.178 1.686c-.169 0-.339-.025-.53-.052l-.085-.012c-.09 0-.146.087-.196.166l-.014.023-8.425 13.042-.026.038c-.049.071-.106.152-.05.208.032.032.065.032.097.032.031 0 21.206-9.03 22.829-9.722l.022-.009c.067-.028.141-.059.141-.129v-.288c0-.173.026-.345.055-.494a.211.211 0 0 0 0-.106c-.024-.059-.084-.085-.143-.109zM487.406 589.524l-23.08 9.841c.01.002.087.26.16.511.07.236.138.466.146.467l18.405 3.797c.041.009.092.017.13-.002.045-.023.07-.064.096-.108l.009-.015c.557-.919 1.507-1.528 2.58-1.591.088 0 .103-.107.115-.202l.001-.01.006-.038 1.978-12.144c.002-.012.004-.022.004-.032v-.016c-.003-.05-.051-.078-.099-.106a.439.439 0 0 1-.051-.032 3.117 3.117 0 0 1-.335-.288c-.033-.032-.065-.032-.065-.032z"/>
  </g>
  <g filter="url(#filter6_f)">
    <path fill="url(#ribbon7_linear)" d="M73.68 311.71c7.1 20.606 28.367 25.728 28.367 25.728l138.794-79.172-20.362-35.267-149.602 53.089s-2.68 19.702 2.804 35.622z"/>
    <path stroke="#fff" stroke-opacity=".15" stroke-width=".5" d="M220.367 223.304l20.132 34.87-138.488 78.997-.009-.003-.13-.034a24.448 24.448 0 0 1-.68-.196 37.74 37.74 0 0 1-2.49-.856 47.317 47.317 0 0 1-8.044-3.993c-6.172-3.837-13.216-10.228-16.74-20.46-2.73-7.923-3.43-16.797-3.446-23.701a106.01 106.01 0 0 1 .321-8.493 81.013 81.013 0 0 1 .304-3.091l.009-.072 149.261-52.968z"/>
  </g>
  <g filter="url(#filter7_f)">
    <path fill="url(#ribbon8_linear)" d="M454.98 128.124c-9.263-19.727-25.933-24.536-25.933-24.536l-140.563 81.018 20.362 35.268 149.551-54.17s4.969-19.721-3.417-37.58z"/>
    <path stroke="#fff" stroke-opacity=".15" stroke-width=".5" d="M429.078 103.859l.082.026c.121.039.302.1.537.184.468.168 1.15.43 1.998.807 1.695.754 4.055 1.964 6.703 3.788 5.296 3.648 11.747 9.75 16.356 19.566 4.171 8.882 5.023 18.234 4.829 25.375a68.212 68.212 0 0 1-.788 8.7 50.018 50.018 0 0 1-.446 2.466 28.954 28.954 0 0 1-.163.744l-149.228 54.052-20.132-34.869 140.252-80.839z"/>
  </g>
  <g filter="url(#filter8_f)">
    <path fill="url(#ribbon9_linear)" d="M113.756 370.751c14.569 16.209 38.115 16.48 38.115 16.48l102.998-123.038-31.196-26.176-121.296 99.421s-1.814 18.636 11.379 33.313z"/>
    <path stroke="#fff" stroke-opacity=".15" stroke-width=".5" d="M151.757 386.978l-.145-.004a34.926 34.926 0 0 1-.766-.036 51.475 51.475 0 0 1-2.853-.251 65.736 65.736 0 0 1-9.65-1.859c-7.682-2.087-17.16-6.188-24.401-14.244-6.557-7.295-9.387-15.576-10.577-22.039a49.391 49.391 0 0 1-.815-7.971 36.7 36.7 0 0 1 .025-2.296c.012-.266.024-.472.034-.609l.008-.105 121.054-99.223 30.846 25.883-102.76 122.754z"/>
  </g>
  <g filter="url(#filter9_f)">
    <path fill="url(#ribbon10_linear)" d="M411.498 74.082c-16.066-14.726-33.562-19.09-33.562-19.09L274.449 178.678l31.196 26.176 123.246-102.199s-8.076-20.033-17.393-28.574z"/>
    <path stroke="#fff" stroke-opacity=".15" stroke-width=".5" d="M378.026 55.273l.046.012a53.435 53.435 0 0 1 2.769.855 80.421 80.421 0 0 1 7.747 3.102c6.365 2.924 14.732 7.683 22.741 15.025 4.624 4.239 8.956 11.348 12.138 17.421a145.353 145.353 0 0 1 3.789 7.807 131.504 131.504 0 0 1 1.311 3.029l.023.057L305.646 204.53l-30.845-25.882L378.026 55.273z"/>
  </g>
  <g filter="url(#filter10_f)">
    <path fill="url(#ribbon11_linear)" d="M178.025 411.509c20.341 7.823 36.827 2.228 36.827 2.228l55.233-148.774-38.267-13.928-79.829 137.134s10.789 17.476 26.036 23.34z"/>
    <path stroke="#fff" stroke-opacity=".15" stroke-width=".5" d="M231.929 251.341l37.834 13.771-55.103 148.425-.072.022c-.124.039-.308.094-.551.163-.486.136-1.205.323-2.131.523-1.853.4-4.537.853-7.855 1.062-6.636.419-15.806-.135-25.936-4.031-7.57-2.912-14.048-8.713-18.64-13.804a79.41 79.41 0 0 1-5.36-6.627 64.299 64.299 0 0 1-1.425-2.052 43.848 43.848 0 0 1-.366-.561l-.043-.068 79.648-136.823z"/>
  </g>
  <g filter="url(#filter11_f)">
    <path fill="url(#ribbon12_linear)" d="M354.352 32.682c-19.286-10.15-40.406-6.995-40.406-6.995L259.235 177.91l38.268 13.928 79.796-136.846s-10.836-15.936-22.947-22.31z"/>
    <path stroke="#fff" stroke-opacity=".15" stroke-width=".5" d="M314.13 25.914l.09-.012c.158-.02.392-.049.698-.082a56.41 56.41 0 0 1 2.644-.218 77.029 77.029 0 0 1 9.339.026c7.67.478 17.733 2.222 27.335 7.275 6.014 3.166 11.727 8.716 15.944 13.49a106.014 106.014 0 0 1 5.037 6.16 86.464 86.464 0 0 1 1.752 2.401l.034.049-79.611 136.529-37.837-13.772L314.13 25.914z"/>
  </g>
  <g filter="url(#filter12_f)">
    <path fill="url(#ribbon13_linear)" d="M247.665 430.83c21.856 1.889 37.208-9.7 37.208-9.7V260.877h-41.012l-28.187 153.095s12.827 15.202 31.991 16.858z"/>
    <path stroke="#fff" stroke-opacity=".15" stroke-width=".5" d="M284.623 421.004a24.722 24.722 0 0 1-.592.413c-.459.311-1.14.754-2.026 1.279a56.807 56.807 0 0 1-7.634 3.761c-6.543 2.65-15.805 5.065-26.684 4.124-9.523-.822-17.478-5.012-23.058-9.004a57.77 57.77 0 0 1-6.477-5.384 43.622 43.622 0 0 1-1.706-1.735c-.192-.208-.338-.37-.436-.481l-.068-.078 28.128-152.772h40.553v159.877z"/>
  </g>
  <g filter="url(#filter13_f)">
    <path fill="url(#ribbon14_linear)" d="M283.179 14.197c-21.793-2.515-39.1 4.947-39.1 4.947v162.694h41.012l28.467-156.167s-8.287-8.924-30.379-11.474z"/>
    <path stroke="#fff" stroke-opacity=".15" stroke-width=".5" d="M244.329 19.31l.045-.017c.13-.054.325-.132.581-.231a55.02 55.02 0 0 1 2.249-.808 80.53 80.53 0 0 1 8.306-2.282c7.032-1.547 16.778-2.78 27.64-1.527 11.016 1.272 18.581 4.131 23.386 6.666 2.403 1.268 4.117 2.455 5.228 3.322.555.434.96.788 1.225 1.033.132.122.23.217.294.28l.006.007-28.407 155.835h-40.553V19.311z"/>
  </g>
  <g filter="url(#filter14_f)">
    <path fill="url(#ribbon15_linear)" d="M319.357 427.282c20.571-7.2 29.812-24.133 29.812-24.133l-52.37-151.856-38.267 13.928 26.754 157.329s15.144 11.356 34.071 4.732z"/>
    <path stroke="#fff" stroke-opacity=".15" stroke-width=".5" d="M258.813 265.385l37.833-13.77 52.25 151.509-.053.092c-.071.124-.179.307-.325.544a40.64 40.64 0 0 1-1.32 2.004 57.132 57.132 0 0 1-5.402 6.579c-4.862 5.113-12.283 11.119-22.521 14.703-9.399 3.289-17.858 2.115-23.973.116a40.995 40.995 0 0 1-7.232-3.159 32.014 32.014 0 0 1-1.958-1.187 16.71 16.71 0 0 1-.507-.345l-.089-.063-26.703-157.023z"/>
  </g>
  <g filter="url(#filter15_f)">
    <path fill="url(#ribbon16_linear)" d="M208.486 19.296c-20.463 7.5-29.282 21.863-29.282 21.863l53.327 150.422 38.268-13.928L246.63 19.296s-20.103-6.612-38.144 0z"/>
    <path stroke="#fff" stroke-opacity=".15" stroke-width=".5" d="M270.521 177.488l-37.838 13.772L179.48 41.19l.037-.058c.069-.105.172-.261.311-.463.279-.404.7-.99 1.27-1.717 1.14-1.456 2.874-3.476 5.246-5.731 4.743-4.51 12.035-9.954 22.228-13.69 8.97-3.288 18.462-3.29 25.723-2.466a75.072 75.072 0 0 1 8.854 1.544c1.079.258 1.931.49 2.513.656.291.084.514.151.664.197l.08.025 24.115 158.001z"/>
  </g>
  <g filter="url(#filter16_f)">
    <path fill="url(#ribbon17_linear)" d="M382.291 393.921c15.855-14.952 18.153-31.993 18.153-31.993L305.07 238.501l-31.196 26.177 76.713 137.945s22.477 0 31.704-8.702z"/>
    <path stroke="#fff" stroke-opacity=".15" stroke-width=".5" d="M274.193 264.737l30.838-25.877 95.151 123.137-.014.086c-.02.126-.053.315-.099.56a36.55 36.55 0 0 1-.474 2.12c-.46 1.821-1.239 4.406-2.512 7.458-2.546 6.104-7.066 14.071-14.964 21.519-4.554 4.294-12.411 6.461-19.18 7.548a89.52 89.52 0 0 1-11.375 1.068c-.315.008-.56.013-.726.015l-.105.001-76.54-137.635z"/>
  </g>
  <g filter="url(#filter17_f)">
    <path fill="url(#ribbon18_linear)" d="M142.639 52.048c-17.235 13.339-19.581 28.972-19.581 28.972l101.198 123.352 31.196-26.177-76.548-135.038s-24.776 0-36.265 8.891z"/>
    <path stroke="#fff" stroke-opacity=".15" stroke-width=".5" d="M255.132 178.138l-30.843 25.88L123.323 80.949l.012-.063c.021-.115.054-.287.102-.511.097-.448.254-1.105.497-1.936.486-1.662 1.312-4.02 2.676-6.792 2.726-5.547 7.599-12.758 16.182-19.401 5.689-4.403 14.699-6.62 22.324-7.73a111.51 111.51 0 0 1 9.751-.97 97.348 97.348 0 0 1 3.759-.137l.133-.001 76.373 134.73z"/>
  </g>
  <g filter="url(#filter18_f)">
    <path fill="url(#ribbon19_linear)" d="M474.237 199.869c-1.396-21.749-15.995-32.456-15.995-32.456l-158.596 27.564 7.072 40.105 160.209 1.789s8.397-20.076 7.31-37.002z"/>
    <path stroke="#fff" stroke-opacity=".15" stroke-width=".5" d="M306.928 234.834l-6.992-39.654 158.242-27.502.075.057c.105.083.26.206.459.372.398.332.969.831 1.66 1.498a43.036 43.036 0 0 1 5.14 6.024c3.803 5.366 7.781 13.437 8.476 24.256.541 8.422-1.278 17.641-3.239 24.766-.98 3.56-1.994 6.592-2.762 8.734a78.89 78.89 0 0 1-1.227 3.234l-159.832-1.785z"/>
  </g>
  <g filter="url(#filter19_f)">
    <path fill="url(#ribbon20_linear)" d="M431.481 345.016c14.295-16.45 13.385-42.069 13.385-42.069l-136.397-79.295-20.362 35.267 112.627 102.142s21.47-5.37 30.747-16.045z"/>
    <path stroke="#fff" stroke-opacity=".15" stroke-width=".5" d="M288.425 258.87l20.135-34.876 136.06 79.099.003.15c.003.19.006.471.005.836-.004.729-.024 1.79-.093 3.115a82.38 82.38 0 0 1-1.247 10.573c-1.555 8.441-4.89 18.908-11.996 27.085-4.598 5.291-12.238 9.284-18.758 11.958a102.686 102.686 0 0 1-8.375 3.006 87.394 87.394 0 0 1-2.551.752c-.302.084-.536.146-.694.188l-.112.029L288.425 258.87z"/>
  </g>
  <g filter="url(#filter20_f)">
    <path fill="url(#ribbon21_linear)" d="M466.539 283.824c7.807-20.347 1.135-46.081 1.135-46.081l-163.687-19.419-6.248 25.377 147.765 59.246s15.899-5.737 21.035-19.123z"/>
    <path stroke="#fff" stroke-opacity=".15" stroke-width=".5" d="M467.474 237.971l.03.125c.047.192.115.477.198.847.166.741.396 1.822.647 3.184a106.945 106.945 0 0 1 1.436 11.046c.691 8.961.405 20.438-3.479 30.562-2.542 6.625-7.754 11.369-12.35 14.463a46.96 46.96 0 0 1-5.995 3.417c-.781.372-1.418.646-1.859.828a25.927 25.927 0 0 1-.595.236L298.034 243.55l6.143-24.952 163.297 19.373z"/>
  </g>
  <g filter="url(#filter21_f)">
    <path fill="url(#ribbon22_linear)" d="M54.55 242.28c1.464 21.744 16.657 33.643 16.657 33.643l158.474-28.024-7.071-40.105-157.805-1.302S53.396 225.128 54.55 242.28z"/>
    <path stroke="#fff" stroke-opacity=".15" stroke-width=".5" d="M71.275 275.657l-.08-.065c-.11-.091-.271-.228-.478-.411a35.78 35.78 0 0 1-1.73-1.633 49.042 49.042 0 0 1-5.354-6.436c-3.963-5.665-8.105-14.033-8.833-24.849-.574-8.521 1.975-17.427 4.677-24.217a89.929 89.929 0 0 1 3.785-8.258 71.98 71.98 0 0 1 1.273-2.338c.154-.27.275-.478.358-.617l.053-.09 157.454 1.299 6.992 39.654-158.117 27.961z"/>
  </g>
  <g filter="url(#filter22_f)">
    <path fill="url(#ribbon23_linear)" d="M63.516 164.739c-5.615 21.058 1.508 40.821 1.508 40.821l157.716 28.777 7.071-40.105-148.113-57.366s-16.184 20.38-18.182 27.873z"/>
    <path stroke="#fff" stroke-opacity=".15" stroke-width=".5" d="M229.529 194.391l-6.992 39.655L65.212 205.34l-.03-.087a36.88 36.88 0 0 1-.214-.659 56.987 56.987 0 0 1-.727-2.515 78.953 78.953 0 0 1-1.829-9.068c-1.076-7.552-1.45-17.722 1.346-28.208.489-1.835 1.857-4.486 3.656-7.451 1.793-2.957 4-6.201 6.146-9.214a297.317 297.317 0 0 1 8.152-10.887l.068-.085 147.749 57.225z"/>
  </g>
  <g filter="url(#filter23_f)">
    <path fill="url(#ribbon24_linear)" d="M91.29 102.499c-12.795 17.643-9.591 34.866-9.591 34.866l145.055 66.337 12.045-18.352L122.16 81.52s-21.38 7.892-30.87 20.979z"/>
    <path stroke="#fff" stroke-opacity=".15" stroke-width=".5" d="M81.923 137.193l-.01-.064c-.02-.128-.048-.319-.079-.569-.062-.5-.136-1.236-.186-2.175-.1-1.878-.101-4.567.296-7.806.794-6.478 3.18-15.152 9.548-23.933 4.712-6.498 12.391-11.722 18.912-15.326 3.258-1.8 6.22-3.192 8.367-4.134a86.546 86.546 0 0 1 2.544-1.07c.301-.12.534-.21.692-.271l.099-.038 116.365 103.586-11.809 17.992-144.74-66.192z"/>
  </g>
  <path fill="url(#ribbon25_linear)" d="M266.98 325.028l8.046-2.615 8.441.572 7.488-3.937 8.416-.862 6.715-5.147 8.149-2.272 5.748-6.207 7.648-3.617 4.617-7.089 6.927-4.857 3.352-7.768 6.006-5.958 1.992-8.222 4.913-6.888.573-8.44 3.678-7.619-.862-8.416 2.338-8.131-2.271-8.149.93-8.409-3.616-7.648-.505-8.445-4.856-6.928-1.925-8.238-5.957-6.007-3.289-7.794-6.887-4.914-4.559-7.126-7.618-3.679-5.698-6.254-8.131-2.339-6.672-5.2-8.409-.931-7.456-3.998-8.445.503-8.024-2.681-8.238 1.924-8.362-1.286-7.795 3.288-8.459.146-7.127 4.558-8.312 1.573-6.255 5.697-7.927 2.955-5.201 6.672-7.314 4.253-3.999 7.455-6.49 5.427-2.681 8.024-5.48 6.446-1.286 8.362-4.312 7.279.145 8.459-3.019 7.903 1.573 8.313-1.64 8.299 2.954 7.928-.213 8.457 4.251 7.314 1.219 8.372 5.427 6.49 2.616 8.046 6.445 5.48 3.938 7.487 7.279 4.312 5.147 6.714 7.903 3.02 6.207 5.748 8.3 1.641 7.09 4.616 8.457.214 7.768 3.352 8.372-1.218 8.222 1.99z" filter="url(#filter24_d)"/>
  <path fill="url(#ribbon26_linear)" d="M266.159 303.617l7.72-.689 7.611-1.467 7.423-2.229 7.16-2.969 6.823-3.678 6.416-4.35 5.943-4.976 5.408-5.552 4.82-6.07 4.18-6.527 3.499-6.917 2.781-7.235 2.035-7.479 1.268-7.646.488-7.736-.298-7.745-1.079-7.676-1.851-7.527-2.602-7.301-3.328-7-4.019-6.628-4.669-6.187-5.27-5.683-5.819-5.121-6.307-4.506-6.73-3.844-7.085-3.144-7.367-2.411-7.572-1.654-7.701-.879-7.751-.095-7.72.69-7.611 1.466-7.423 2.23-7.16 2.969-6.823 3.678-6.416 4.349-5.943 4.976-5.408 5.552-4.82 6.071-4.18 6.527-3.499 6.916-2.781 7.235-2.035 7.479-1.268 7.647-.488 7.735.298 7.746 1.079 7.675 1.851 7.527 2.602 7.301 3.328 7 4.019 6.628 4.669 6.187 5.27 5.683 5.819 5.121 6.307 4.506 6.73 3.844 7.085 3.144 7.367 2.411 7.572 1.654 7.701.879 7.751.095z" filter="url(#filter25_d)"/>
  <g filter="url(#filter26_di)">
    <path fill="#939393" d="M272.456 183.258a2 2 0 0 0-2-2h-8.736c-.393 0-.778.116-1.106.334L238.6 196.211a2 2 0 0 0-.894 1.666v6.721c0 1.596 1.777 2.549 3.106 1.666l19.65-13.047a.422.422 0 0 1 .655.351V272.9a2 2 0 0 0 2 2h7.339a2 2 0 0 0 2-2v-89.642z"/>
    <path fill="url(#ribbon27_linear)" d="M272.456 183.258a2 2 0 0 0-2-2h-8.736c-.393 0-.778.116-1.106.334L238.6 196.211a2 2 0 0 0-.894 1.666v6.721c0 1.596 1.777 2.549 3.106 1.666l19.65-13.047a.422.422 0 0 1 .655.351V272.9a2 2 0 0 0 2 2h7.339a2 2 0 0 0 2-2v-89.642z"/>
  </g>
  <g fill="#000" fill-opacity=".1" filter="url(#filter27_f)">
    <path d="M344.627 565.478l.652 11.486a28.34 28.34 0 0 1-4.235.304c-10.257 0-10.718-5.123-14.777-9.287-2.49-2.556-4.74-4.865-7.889-5.661-5.518-1.394-10.345.698-14.485 6.276 2.76-11.157 9.657-16.735 20.694-16.735 10.257 0 14.953 4.819 19.01 8.982-2.617 1.965-.698 3.53 1.03 4.635zM303.893 576.964c-11.035 0-17.933 5.578-20.692 16.735 4.138-5.579 8.967-7.671 14.485-6.276 3.148.796 5.398 3.105 7.889 5.661 4.057 4.163 8.755 8.982 19.012 8.982 11.035 0 17.933-5.578 20.692-16.735-4.138 5.579-8.967 7.67-14.485 6.276-3.148-.796-5.398-3.105-7.889-5.661-4.058-4.163-8.755-8.982-19.012-8.982z"/>
  </g>
  <defs>
    <filter id="filter0_f" width="489.42" height="756.255" x="35.703" y="23.179" color-interpolation-filters="sRGB" filterUnits="userSpaceOnUse">
      <feFlood flood-opacity="0" result="BackgroundImageFix"/>
      <feBlend in="SourceGraphic" in2="BackgroundImageFix" result="shape"/>
      <feGaussianBlur result="effect1_foregroundBlur" stdDeviation="17.5"/>
    </filter>
    <filter id="filter1_f" width="4.875" height="209.461" x="254.116" y="457.545" color-interpolation-filters="sRGB" filterUnits="userSpaceOnUse">
      <feFlood flood-opacity="0" result="BackgroundImageFix"/>
      <feBlend in="SourceGraphic" in2="BackgroundImageFix" result="shape"/>
      <feGaussianBlur result="effect1_foregroundBlur" stdDeviation=".25"/>
    </filter>
    <filter id="filter2_f" width="69.917" height="72.467" x="160.32" y="538.89" color-interpolation-filters="sRGB" filterUnits="userSpaceOnUse">
      <feFlood flood-opacity="0" result="BackgroundImageFix"/>
      <feBlend in="SourceGraphic" in2="BackgroundImageFix" result="shape"/>
      <feGaussianBlur result="effect1_foregroundBlur" stdDeviation="2.5"/>
    </filter>
    <filter id="filter3_f" width="60.093" height="61.367" x="167.145" y="546.99" color-interpolation-filters="sRGB" filterUnits="userSpaceOnUse">
      <feFlood flood-opacity="0" result="BackgroundImageFix"/>
      <feBlend in="SourceGraphic" in2="BackgroundImageFix" result="shape"/>
      <feGaussianBlur result="effect1_foregroundBlur" stdDeviation="1"/>
    </filter>
    <filter id="filter4_f" width="137.431" height="171.059" x="2.266" y="508.717" color-interpolation-filters="sRGB" filterUnits="userSpaceOnUse">
      <feFlood flood-opacity="0" result="BackgroundImageFix"/>
      <feBlend in="SourceGraphic" in2="BackgroundImageFix" result="shape"/>
      <feGaussianBlur result="effect1_foregroundBlur" stdDeviation="12.5"/>
    </filter>
    <filter id="filter5_f" width="121.983" height="122.063" x="414.131" y="534.188" color-interpolation-filters="sRGB" filterUnits="userSpaceOnUse">
      <feFlood flood-opacity="0" result="BackgroundImageFix"/>
      <feBlend in="SourceGraphic" in2="BackgroundImageFix" result="shape"/>
      <feGaussianBlur result="effect1_foregroundBlur" stdDeviation="12.5"/>
    </filter>
    <filter id="filter6_f" width="185.887" height="148.321" x="55.954" y="197.036" color-interpolation-filters="sRGB" filterUnits="userSpaceOnUse">
      <feFlood flood-opacity="0" result="BackgroundImageFix"/>
      <feBlend in="SourceGraphic" in2="BackgroundImageFix" result="shape"/>
      <feGaussianBlur result="effect1_foregroundBlur" stdDeviation=".5"/>
    </filter>
    <filter id="filter7_f" width="185.789" height="147.709" x="287.484" y="97.295" color-interpolation-filters="sRGB" filterUnits="userSpaceOnUse">
      <feFlood flood-opacity="0" result="BackgroundImageFix"/>
      <feBlend in="SourceGraphic" in2="BackgroundImageFix" result="shape"/>
      <feGaussianBlur result="effect1_foregroundBlur" stdDeviation=".5"/>
    </filter>
    <filter id="filter8_f" width="166.601" height="179.275" x="89.411" y="218.368" color-interpolation-filters="sRGB" filterUnits="userSpaceOnUse">
      <feFlood flood-opacity="0" result="BackgroundImageFix"/>
      <feBlend in="SourceGraphic" in2="BackgroundImageFix" result="shape"/>
      <feGaussianBlur result="effect1_foregroundBlur" stdDeviation=".5"/>
    </filter>
    <filter id="filter9_f" width="163.552" height="175.709" x="273.273" y="48.607" color-interpolation-filters="sRGB" filterUnits="userSpaceOnUse">
      <feFlood flood-opacity="0" result="BackgroundImageFix"/>
      <feBlend in="SourceGraphic" in2="BackgroundImageFix" result="shape"/>
      <feGaussianBlur result="effect1_foregroundBlur" stdDeviation=".5"/>
    </filter>
    <filter id="filter10_f" width="124.556" height="184.544" x="146.529" y="240.42" color-interpolation-filters="sRGB" filterUnits="userSpaceOnUse">
      <feFlood flood-opacity="0" result="BackgroundImageFix"/>
      <feBlend in="SourceGraphic" in2="BackgroundImageFix" result="shape"/>
      <feGaussianBlur result="effect1_foregroundBlur" stdDeviation=".5"/>
    </filter>
    <filter id="filter11_f" width="125.345" height="185.1" x="257.623" y="17.377" color-interpolation-filters="sRGB" filterUnits="userSpaceOnUse">
      <feFlood flood-opacity="0" result="BackgroundImageFix"/>
      <feBlend in="SourceGraphic" in2="BackgroundImageFix" result="shape"/>
      <feGaussianBlur result="effect1_foregroundBlur" stdDeviation=".5"/>
    </filter>
    <filter id="filter12_f" width="71.199" height="172.161" x="214.674" y="259.877" color-interpolation-filters="sRGB" filterUnits="userSpaceOnUse">
      <feFlood flood-opacity="0" result="BackgroundImageFix"/>
      <feBlend in="SourceGraphic" in2="BackgroundImageFix" result="shape"/>
      <feGaussianBlur result="effect1_foregroundBlur" stdDeviation=".5"/>
    </filter>
    <filter id="filter13_f" width="71.478" height="170.159" x="243.079" y="12.679" color-interpolation-filters="sRGB" filterUnits="userSpaceOnUse">
      <feFlood flood-opacity="0" result="BackgroundImageFix"/>
      <feBlend in="SourceGraphic" in2="BackgroundImageFix" result="shape"/>
      <feGaussianBlur result="effect1_foregroundBlur" stdDeviation=".5"/>
    </filter>
    <filter id="filter14_f" width="126.409" height="188.389" x="230.592" y="250.293" color-interpolation-filters="sRGB" filterUnits="userSpaceOnUse">
      <feFlood flood-opacity="0" result="BackgroundImageFix"/>
      <feBlend in="SourceGraphic" in2="BackgroundImageFix" result="shape"/>
      <feGaussianBlur result="effect1_foregroundBlur" stdDeviation=".5"/>
    </filter>
    <filter id="filter15_f" width="128.005" height="186.544" x="173.347" y="6.037" color-interpolation-filters="sRGB" filterUnits="userSpaceOnUse">
      <feFlood flood-opacity="0" result="BackgroundImageFix"/>
      <feBlend in="SourceGraphic" in2="BackgroundImageFix" result="shape"/>
      <feGaussianBlur result="effect1_foregroundBlur" stdDeviation=".5"/>
    </filter>
    <filter id="filter16_f" width="164.556" height="176.647" x="249.966" y="237.501" color-interpolation-filters="sRGB" filterUnits="userSpaceOnUse">
      <feFlood flood-opacity="0" result="BackgroundImageFix"/>
      <feBlend in="SourceGraphic" in2="BackgroundImageFix" result="shape"/>
      <feGaussianBlur result="effect1_foregroundBlur" stdDeviation=".5"/>
    </filter>
    <filter id="filter17_f" width="163.529" height="175.893" x="114.497" y="29.479" color-interpolation-filters="sRGB" filterUnits="userSpaceOnUse">
      <feFlood flood-opacity="0" result="BackgroundImageFix"/>
      <feBlend in="SourceGraphic" in2="BackgroundImageFix" result="shape"/>
      <feGaussianBlur result="effect1_foregroundBlur" stdDeviation=".5"/>
    </filter>
    <filter id="filter18_f" width="183" height="101" x="298.646" y="164.214" color-interpolation-filters="sRGB" filterUnits="userSpaceOnUse">
      <feFlood flood-opacity="0" result="BackgroundImageFix"/>
      <feBlend in="SourceGraphic" in2="BackgroundImageFix" result="shape"/>
      <feGaussianBlur result="effect1_foregroundBlur" stdDeviation=".5"/>
    </filter>
    <filter id="filter19_f" width="183.928" height="149.106" x="271.036" y="222.652" color-interpolation-filters="sRGB" filterUnits="userSpaceOnUse">
      <feFlood flood-opacity="0" result="BackgroundImageFix"/>
      <feBlend in="SourceGraphic" in2="BackgroundImageFix" result="shape"/>
      <feGaussianBlur result="effect1_foregroundBlur" stdDeviation=".5"/>
    </filter>
    <filter id="filter20_f" width="185.311" height="99.268" x="291.063" y="207.862" color-interpolation-filters="sRGB" filterUnits="userSpaceOnUse">
      <feFlood flood-opacity="0" result="BackgroundImageFix"/>
      <feBlend in="SourceGraphic" in2="BackgroundImageFix" result="shape"/>
      <feGaussianBlur result="effect1_foregroundBlur" stdDeviation=".5"/>
    </filter>
    <filter id="filter21_f" width="183.234" height="100.261" x="47.461" y="178.545" color-interpolation-filters="sRGB" filterUnits="userSpaceOnUse">
      <feFlood flood-opacity="0" result="BackgroundImageFix"/>
      <feBlend in="SourceGraphic" in2="BackgroundImageFix" result="shape"/>
      <feGaussianBlur result="effect1_foregroundBlur" stdDeviation=".5"/>
    </filter>
    <filter id="filter22_f" width="180.961" height="101.779" x="55.194" y="133.558" color-interpolation-filters="sRGB" filterUnits="userSpaceOnUse">
      <feFlood flood-opacity="0" result="BackgroundImageFix"/>
      <feBlend in="SourceGraphic" in2="BackgroundImageFix" result="shape"/>
      <feGaussianBlur result="effect1_foregroundBlur" stdDeviation=".5"/>
    </filter>
    <filter id="filter23_f" width="183.062" height="146.139" x="72.537" y="72.249" color-interpolation-filters="sRGB" filterUnits="userSpaceOnUse">
      <feFlood flood-opacity="0" result="BackgroundImageFix"/>
      <feBlend in="SourceGraphic" in2="BackgroundImageFix" result="shape"/>
      <feGaussianBlur result="effect1_foregroundBlur" stdDeviation=".5"/>
    </filter>
    <filter id="filter24_d" width="209.071" height="208.901" x="158.693" y="124.882" color-interpolation-filters="sRGB" filterUnits="userSpaceOnUse">
      <feFlood flood-opacity="0" result="BackgroundImageFix"/>
      <feColorMatrix in="SourceAlpha" values="0 0 0 0 0 0 0 0 0 0 0 0 0 0 0 0 0 0 127 0"/>
      <feOffset dy="2"/>
      <feGaussianBlur stdDeviation="1.5"/>
      <feColorMatrix values="0 0 0 0 0 0 0 0 0 0 0 0 0 0 0 0 0 0 0.25 0"/>
      <feBlend in2="BackgroundImageFix" result="effect1_dropShadow"/>
      <feBlend in="SourceGraphic" in2="effect1_dropShadow" result="shape"/>
    </filter>
    <filter id="filter25_d" width="164.597" height="164.786" x="180.924" y="146.764" color-interpolation-filters="sRGB" filterUnits="userSpaceOnUse">
      <feFlood flood-opacity="0" result="BackgroundImageFix"/>
      <feColorMatrix in="SourceAlpha" values="0 0 0 0 0 0 0 0 0 0 0 0 0 0 0 0 0 0 127 0"/>
      <feOffset dy="2"/>
      <feGaussianBlur stdDeviation="1.5"/>
      <feColorMatrix values="0 0 0 0 0 0 0 0 0 0 0 0 0 0 0 0 0 0 0.25 0"/>
      <feBlend in2="BackgroundImageFix" result="effect1_dropShadow"/>
      <feBlend in="SourceGraphic" in2="effect1_dropShadow" result="shape"/>
    </filter>
    <filter id="filter26_di" width="38.75" height="97.642" x="236.706" y="181.258" color-interpolation-filters="sRGB" filterUnits="userSpaceOnUse">
      <feFlood flood-opacity="0" result="BackgroundImageFix"/>
      <feColorMatrix in="SourceAlpha" values="0 0 0 0 0 0 0 0 0 0 0 0 0 0 0 0 0 0 127 0"/>
      <feOffset dx="1" dy="2"/>
      <feGaussianBlur stdDeviation="1"/>
      <feColorMatrix values="0 0 0 0 0 0 0 0 0 0 0 0 0 0 0 0 0 0 0.25 0"/>
      <feBlend in2="BackgroundImageFix" result="effect1_dropShadow"/>
      <feBlend in="SourceGraphic" in2="effect1_dropShadow" result="shape"/>
      <feColorMatrix in="SourceAlpha" result="hardAlpha" values="0 0 0 0 0 0 0 0 0 0 0 0 0 0 0 0 0 0 127 0"/>
      <feOffset dx="2" dy="1"/>
      <feGaussianBlur stdDeviation="1.5"/>
      <feComposite in2="hardAlpha" k2="-1" k3="1" operator="arithmetic"/>
      <feColorMatrix values="0 0 0 0 1 0 0 0 0 1 0 0 0 0 1 0 0 0 0.5 0"/>
      <feBlend in2="shape" result="effect2_innerShadow"/>
    </filter>
    <filter id="filter27_f" width="72.078" height="60.205" x="278.201" y="546.861" color-interpolation-filters="sRGB" filterUnits="userSpaceOnUse">
      <feFlood flood-opacity="0" result="BackgroundImageFix"/>
      <feBlend in="SourceGraphic" in2="BackgroundImageFix" result="shape"/>
      <feGaussianBlur result="effect1_foregroundBlur" stdDeviation="2.5"/>
    </filter>
    <linearGradient id="ribbon0_linear" x1="238.343" x2="238.343" y1="504.371" y2="394.735" gradientUnits="userSpaceOnUse">
      <stop stop-color="#414443"/>
      <stop offset="1" stop-color="#252928"/>
    </linearGradient>
    <linearGradient id="ribbon1_linear" x1="279.002" x2="272.126" y1="537.805" y2="401.746" gradientUnits="userSpaceOnUse">
      <stop stop-color="#414443"/>
      <stop offset="1" stop-color="#252928"/>
    </linearGradient>
    <linearGradient id="ribbon2_linear" x1="256.553" x2="256.553" y1="458.046" y2="666.506" gradientUnits="userSpaceOnUse">
      <stop stop-color="#fff" stop-opacity="0"/>
      <stop offset="1" stop-color="#fff"/>
    </linearGradient>
    <linearGradient id="ribbon3_linear" x1="475.693" x2="306.689" y1="716.387" y2="547.987" gradientUnits="userSpaceOnUse">
      <stop stop-color="#fff"/>
      <stop offset="1" stop-color="#fff" stop-opacity="0"/>
    </linearGradient>
    <linearGradient id="ribbon4_linear" x1="98.145" x2="17.435" y1="631.804" y2="510.745" gradientUnits="userSpaceOnUse">
      <stop stop-color="#fff"/>
      <stop offset="1" stop-color="#fff" stop-opacity="0"/>
    </linearGradient>
    <linearGradient id="ribbon5_linear" x1="101.949" x2="17.287" y1="631.803" y2="510.745" gradientUnits="userSpaceOnUse">
      <stop stop-color="#fff"/>
      <stop offset="1" stop-color="#fff"/>
    </linearGradient>
    <linearGradient id="ribbon6_linear" x1="593.835" x2="431.422" y1="683.344" y2="520.931" gradientUnits="userSpaceOnUse">
      <stop stop-color="#fff"/>
      <stop offset="1" stop-color="#fff" stop-opacity="0"/>
    </linearGradient>
    <linearGradient id="ribbon7_linear" x1="147.536" x2="141.651" y1="304.509" y2="260.265" gradientUnits="userSpaceOnUse">
      <stop stop-color="#414443"/>
      <stop offset="1" stop-color="#323433"/>
    </linearGradient>
    <linearGradient id="ribbon8_linear" x1="411.843" x2="381.491" y1="193.78" y2="141.213" gradientUnits="userSpaceOnUse">
      <stop stop-color="#414443"/>
      <stop offset="1" stop-color="#323433"/>
    </linearGradient>
    <linearGradient id="ribbon9_linear" x1="182.903" x2="162.166" y1="339.917" y2="300.139" gradientUnits="userSpaceOnUse">
      <stop stop-color="#414443"/>
      <stop offset="1" stop-color="#323433"/>
    </linearGradient>
    <linearGradient id="ribbon10_linear" x1="393.506" x2="347.005" y1="145.109" y2="106.093" gradientUnits="userSpaceOnUse">
      <stop stop-color="#414443"/>
      <stop offset="1" stop-color="#323433"/>
    </linearGradient>
    <linearGradient id="ribbon11_linear" x1="229.012" x2="196.511" y1="358.698" y2="328.845" gradientUnits="userSpaceOnUse">
      <stop stop-color="#414443"/>
      <stop offset="1" stop-color="#323433"/>
    </linearGradient>
    <linearGradient id="ribbon12_linear" x1="359.631" x2="302.59" y1="105.645" y2="84.886" gradientUnits="userSpaceOnUse">
      <stop stop-color="#414443"/>
      <stop offset="1" stop-color="#323433"/>
    </linearGradient>
    <linearGradient id="ribbon13_linear" x1="278.301" x2="237.33" y1="363.584" y2="346.563" gradientUnits="userSpaceOnUse">
      <stop stop-color="#414443"/>
      <stop offset="1" stop-color="#323433"/>
    </linearGradient>
    <linearGradient id="ribbon14_linear" x1="313.558" x2="261.379" y1="44.224" y2="42.175" gradientUnits="userSpaceOnUse">
      <stop stop-color="#414443"/>
      <stop offset="1" stop-color="#323433"/>
    </linearGradient>
    <linearGradient id="ribbon15_linear" x1="326.34" x2="281.793" y1="351.724" y2="349.957" gradientUnits="userSpaceOnUse">
      <stop stop-color="#414443"/>
      <stop offset="1" stop-color="#323433"/>
    </linearGradient>
    <linearGradient id="ribbon16_linear" x1="253.527" x2="197.272" y1="62.645" y2="78.701" gradientUnits="userSpaceOnUse">
      <stop stop-color="#414443"/>
      <stop offset="1" stop-color="#323433"/>
    </linearGradient>
    <linearGradient id="ribbon17_linear" x1="353.808" x2="352.518" y1="371.524" y2="325.825" gradientUnits="userSpaceOnUse">
      <stop stop-color="#414443"/>
      <stop offset="1" stop-color="#323433"/>
    </linearGradient>
    <linearGradient id="ribbon18_linear" x1="148.342" x2="179.72" y1="102.17" y2="61.267" gradientUnits="userSpaceOnUse">
      <stop stop-color="#414443"/>
      <stop offset="1" stop-color="#323433"/>
    </linearGradient>
    <linearGradient id="ribbon19_linear" x1="412.427" x2="401.884" y1="245.789" y2="186.011" gradientUnits="userSpaceOnUse">
      <stop stop-color="#414443"/>
      <stop offset="1" stop-color="#323433"/>
    </linearGradient>
    <linearGradient id="ribbon20_linear" x1="405.37" x2="387.851" y1="345.161" y2="283.082" gradientUnits="userSpaceOnUse">
      <stop stop-color="#414443"/>
      <stop offset="1" stop-color="#323433"/>
    </linearGradient>
    <linearGradient id="ribbon21_linear" x1="426.071" x2="398.683" y1="286.418" y2="231.799" gradientUnits="userSpaceOnUse">
      <stop stop-color="#414443"/>
      <stop offset="1" stop-color="#323433"/>
    </linearGradient>
    <linearGradient id="ribbon22_linear" x1="109.692" x2="106.307" y1="252.741" y2="213.385" gradientUnits="userSpaceOnUse">
      <stop stop-color="#414443"/>
      <stop offset="1" stop-color="#323433"/>
    </linearGradient>
    <linearGradient id="ribbon23_linear" x1="126.985" x2="108.078" y1="217.411" y2="134.558" gradientUnits="userSpaceOnUse">
      <stop stop-color="#414443"/>
      <stop offset="1" stop-color="#323433"/>
    </linearGradient>
    <linearGradient id="ribbon24_linear" x1="159.183" x2="182.095" y1="164.416" y2="132.626" gradientUnits="userSpaceOnUse">
      <stop stop-color="#414443"/>
      <stop offset="1" stop-color="#323433"/>
    </linearGradient>
    <linearGradient id="ribbon25_linear" x1="211.347" x2="264.006" y1="124.943" y2="363.403" gradientUnits="userSpaceOnUse">
      <stop offset=".092" stop-color="#3D4040"/>
      <stop offset="1" stop-color="#252928"/>
    </linearGradient>
    <linearGradient id="ribbon26_linear" x1="173.307" x2="306.448" y1="58.7" y2="305.962" gradientUnits="userSpaceOnUse">
      <stop stop-color="#DE4675"/>
      <stop offset="1" stop-color="#A1274B"/>
    </linearGradient>
    <linearGradient id="ribbon27_linear" x1="237.706" x2="272.127" y1="233.468" y2="233.468" gradientUnits="userSpaceOnUse">
      <stop stop-color="#fff"/>
      <stop offset=".245" stop-color="#DBDBDB"/>
      <stop offset=".458" stop-color="#fff"/>
      <stop offset=".594" stop-color="#F4F4F4"/>
      <stop offset=".778" stop-color="#CACACA"/>
      <stop offset="1" stop-color="#DBDBDB"/>
    </linearGradient>
  </defs>
</svg>