<svg width="100%" viewBox="0 0 1001 851" fill="none" xmlns="http://www.w3.org/2000/svg">
  <g id="disc">
    <path id="disc-shadow" d="M297.927 628.538c164.496 10.99 305.619-116.22 315.207-284.132 9.587-167.911-115.992-312.94-280.489-323.93-164.496-10.99-305.62 116.22-315.206 284.131C7.85 472.519 133.43 617.547 297.927 628.538z" fill="#FEC218" fill-opacity=".4" />
    <path id="disc-body" d="M335.499 617.824c164.813 0 298.42-136.377 298.42-304.607 0-168.229-133.607-304.606-298.42-304.606-164.813 0-298.42 136.377-298.42 304.606 0 168.23 133.607 304.607 298.42 304.607z" fill="#FBC756" />
  </g>
  <g class="pane-shadows">
    <path class="pane-shadow" fill-rule="evenodd" clip-rule="evenodd" d="M428.009 242.542l124.617 14.789-19.903 561.996L341.404 697l86.605-454.458z" fill="#A0E4DC" style="mix-blend-mode:multiply" opacity=".75" />
    <path class="pane-shadow" fill-rule="evenodd" clip-rule="evenodd" d="M694.324 713.837l104.06 24.286 130.092-400.278-226.604-102.412-7.548 478.404z" fill="#9FE4DC" style="mix-blend-mode:multiply" opacity=".75" />
    <path id="pane-shadow-2-4" class="pane-shadow" fill-rule="evenodd" clip-rule="evenodd" d="M786.145 423.59l205.535-44.084-39.166 471.071-152.853-13.566-13.516-413.421zM536.263 223.562l122.482-50.78 67.438 623.382-163.164-14.867-26.756-557.735z" fill="#B9F4D1" style="mix-blend-mode:multiply" opacity=".75" />
  </g>
  <g class="panes">
    <path class="pane" d="M436.402 225.79l124.618 14.789-19.903 561.996-191.32-122.327 86.605-454.458z" fill="#A0E4DC" />
    <path class="pane" d="M794.543 406.838l205.537-44.084-39.167 471.071-152.853-13.566-13.517-413.421z" fill="#B9F4D1" />
    <path class="pane" d="M702.719 697.085l104.06 24.287 130.092-400.279-226.604-102.411-7.548 478.403z" fill="#9FE4DC" />
    <path class="pane" d="M544.657 206.81l122.482-50.781 67.439 623.383-163.165-14.867-26.756-557.735z" fill="#B9F4D1" />
  </g>
  <path id="text-shadow" opacity=".95" d="M623.385 525.904H610.7c-1.597-.157-1.759-.492-1.898-1.893 0-11.909-3.128-25.532 8.429-32.777 4.566-2.862 10.29-2.847 16.066-2.815 6.656.105 13.294 2.983 16.571 9.464 1.797 3.554 2.438 7.565 2.484 11.514l-.036 170.526c-.255.833-.505 1.389-1.862 1.523-15.677 0-32.698 3.328-39.167-9.462-1.756-3.47-2.405-7.379-2.481-11.235-.422-36.788-.14-73.581-.002-110.373.114-9.966 6.207-20.906 19.347-20.976h7.721c0-6.47.704-13.022-.094-19.409-.562-4.478-7.864-8.242-9.987-1.898-.377 1.12-.5 2.304-.507 3.479v12.439c-.158 1.592-.496 1.755-1.899 1.893zm82.61 155.542H693.31c-1.596-.156-1.759-.493-1.897-1.892V491.71c.157-1.594.495-1.757 1.897-1.894h12.685l.371.036c1.376.417 1.442 1.002 1.528 1.858v59.485l11.349-60.194c.368-.702.95-1.105 1.759-1.185h12.621c1.72.167 2.011.678 1.867 2.249l-16.62 86.554 21.422 100.912c-.143 1.605-.486 1.775-1.898 1.915h-12.625c-1.419-.138-1.599-.69-1.856-1.504l-16.019-76.029-.039 76.01c-.415 1.37-1.004 1.438-1.86 1.523zm96.073 0h-12.684c-1.596-.156-1.759-.493-1.898-1.892V491.71c.157-1.594.495-1.757 1.898-1.894 7.533 0 15.065-.037 22.598 0 6.251.099 12.512 2.624 15.893 8.191 2.308 3.802 3.111 8.335 3.16 12.717.082 21.112.105 42.226-.002 63.339-.091 6.068-1.6 12.16-5.561 16.715 0 0 1.595 1.306 2.75 3.172 3.174 5.132 2.804 11.676 2.813 17.972v67.632c-.157 1.591-.493 1.754-1.898 1.892h-12.683c-1.598-.156-1.761-.493-1.898-1.892 0-24.501.177-49.001-.002-73.5a11.825 11.825 0 0 0-.173-1.925c-.413-2.39-2.219-4.807-4.994-4.859h-5.42v80.284c-.158 1.591-.496 1.754-1.899 1.892zm-166.196-134.56h-5.323c-3.279.02-5.194 3.531-5.264 6.783a7426.192 7426.192 0 0 0 0 104.907c.006.645.063 1.289.171 1.925.416 2.389 2.221 4.806 4.996 4.857l5.42.002V546.886zm119.917 24.072c0 22.288-.155 44.574.002 66.86.005.2.012.399.021.6.325 4.768 7.893 9.128 10.058 2.665.376-1.119.499-2.302.507-3.478v-56.368c.157-1.592.496-1.755 1.898-1.893h12.685c1.597.157 1.76.492 1.899 1.893 0 19.607.216 39.218-.005 58.824-.187 9.875-6.447 20.501-19.049 20.697-8.09.042-16.677-.579-21.314-8.204-2.319-3.814-3.13-8.352-3.18-12.771-.2-50.825-.2-101.65 0-152.475.113-9.979 6.191-20.769 19.054-20.976 1.813-.009 3.626-.009 5.44 0 6.25.101 12.514 2.624 15.895 8.209 2.31 3.815 3.107 8.363 3.159 12.767l-.037 82.126c-.254.835-.504 1.392-1.862 1.524h-25.171zM575.935 467.875c.691.367 1.091.948 1.171 1.747 0 55.604-.419 111.21.002 166.812.006.283.017.566.038.848.361 4.628 8.124 9.025 10.139 2.088.301-1.028.402-2.095.409-3.162V469.622c.157-1.592.495-1.755 1.898-1.892h12.684c1.597.156 1.76.493 1.899 1.892 0 56.348.637 112.698-.004 169.042-.188 9.875-6.449 20.499-19.051 20.696-6.087.03-12.087-.839-16.348-5.295 0 0-5.762 5.175-10.844 5.295-8.032.064-16.553-.58-21.188-8.205-2.321-3.816-3.133-8.363-3.183-12.771l.035-169.131c.418-1.372 1.005-1.439 1.862-1.523h12.685c1.597.156 1.76.493 1.899 1.892 0 55.6-.388 111.201 0 166.799.105 4.834 6.531 9.796 9.572 4.378.78-1.39 1.003-3.021 1.015-4.591V469.622c.157-1.592.495-1.755 1.899-1.892l13.054.037.357.108zM688.393 659.36h-29.515c-1.597-.155-1.76-.493-1.899-1.894V469.622c.158-1.592.496-1.755 1.899-1.892h12.684l.37.037c.837.252 1.396.501 1.528 1.855v173.651l15.303.038c1.376.417 1.445 1.002 1.527 1.855v12.3c-.157 1.594-.493 1.757-1.897 1.894zm115.574-153.39v77.213c3.098 0 6.507.67 8.518-1.047 1.629-1.389 2.025-3.716 2.069-5.739.154-21.213.154-42.427 0-63.64a11.835 11.835 0 0 0-.173-1.925c-.413-2.389-2.22-4.808-4.994-4.859-1.807-.011-3.614-.003-5.42-.003zm-42.939-23.482c-3.321.063-5.216 3.699-5.239 6.995v65.389h10.588c0-21.866.154-43.733 0-65.601a12.139 12.139 0 0 0-.172-1.925c-.428-2.463-2.163-4.879-5.177-4.858zm-82.91-29.252h-12.683c-1.596-.156-1.759-.493-1.898-1.892V286.639c.157-1.592.493-1.755 1.898-1.893h12.683c.124.014.249.025.373.038 1.373.417 1.442 1.001 1.526 1.855v164.705c-.156 1.592-.494 1.755-1.899 1.892zm81.289 0h-22.302c-1.596-.156-1.76-.493-1.898-1.892V263.5c.157-1.593.493-1.755 1.898-1.894 7.531 0 15.065-.037 22.596.002 6.765.106 13.471 3.062 16.696 9.66 1.704 3.487 2.314 7.394 2.358 11.246.18 50.009.565 100.021-.003 150.025-.189 9.942-6.362 20.63-19.345 20.697zM628.214 250.707c.691.369 1.093.95 1.171 1.749 0 55.604-.41 111.21.002 166.811.007.282.017.564.04.846.361 4.631 8.121 9.03 10.14 2.089.297-1.027.399-2.094.407-3.159V252.456c.158-1.592.494-1.754 1.898-1.893h12.686c1.596.157 1.759.494 1.897 1.893 0 56.255.217 112.508-.001 168.761-.113 9.886-6.133 20.773-19.054 20.974-6.089.033-12.089-.836-16.348-5.294 0 0-5.764 5.177-10.846 5.296-8.024.063-16.552-.579-21.188-8.204-2.319-3.814-3.129-8.351-3.181-12.772l.037-169.13c.415-1.372 1.003-1.439 1.859-1.524h12.686c1.596.157 1.759.494 1.897 1.893 0 55.599-.394 111.2.002 166.798.105 4.852 6.575 9.715 9.572 4.379.779-1.39 1.004-3.022 1.016-4.59V252.456c.155-1.592.493-1.754 1.898-1.893l13.053.036.357.108zm73.397 191.486h-12.684c-1.595-.157-1.759-.492-1.897-1.892V252.456c.158-1.592.494-1.754 1.897-1.893h11.142l.37.036c.988.299-.024 1.689 3.191.57 8.627-3.003 19.317.284 23.766 7.598 2.32 3.814 3.132 8.352 3.181 12.772l-.035 169.131c-.253.834-.504 1.391-1.861 1.523h-12.684c-1.597-.157-1.76-.492-1.898-1.892 0-55.598.404-111.199-.003-166.795a14.202 14.202 0 0 0-.051-.99c-.423-4.593-8.156-8.742-10.128-1.962-.298 1.028-.401 2.096-.408 3.162v166.585c-.156 1.591-.494 1.754-1.898 1.892zm50.077-164.43V437.15c2.826 0 5.903.577 7.947-.653 2.094-1.262 2.593-4.001 2.639-6.201.339-48.583.339-97.167 0-145.751a14.32 14.32 0 0 0-.05-.992 11.698 11.698 0 0 0-.121-.932c-.416-2.395-2.234-4.807-4.996-4.858-1.807-.011-3.614 0-5.419 0zm-79.772-20.771c10.246.195 17.759 14.725 9.23 23.031-7.72 7.517-24.689 1.214-22.712-11.646.966-6.29 6.882-11.426 13.482-11.385z" fill="#616B68" fill-opacity=".1" />
  <path id="text" d="M628.619 516.328h-12.684c-1.597-.157-1.76-.492-1.898-1.893 0-11.908-3.128-25.532 8.429-32.776 4.565-2.863 10.289-2.848 16.066-2.816 6.656.105 13.293 2.984 16.57 9.464 1.797 3.554 2.439 7.565 2.484 11.514l-.036 170.526c-.254.833-.505 1.389-1.862 1.523-15.676 0-32.698 3.328-39.167-9.462-1.756-3.47-2.405-7.379-2.481-11.235-.421-36.788-.139-73.581-.002-110.373.114-9.966 6.207-20.906 19.347-20.975h7.722c0-6.471.704-13.023-.095-19.409-.562-4.479-7.863-8.243-9.987-1.899-.376 1.12-.5 2.304-.507 3.479v12.439c-.158 1.592-.496 1.755-1.899 1.893zm82.61 155.542h-12.684c-1.596-.156-1.759-.493-1.898-1.892V482.134c.157-1.594.496-1.757 1.898-1.894h12.684l.371.036c1.376.417 1.443 1.002 1.528 1.858v59.486l11.349-60.195c.368-.701.95-1.105 1.759-1.185h12.622c1.72.167 2.01.678 1.866 2.249l-16.62 86.554 21.422 100.912c-.142 1.605-.486 1.775-1.898 1.915h-12.624c-1.42-.138-1.6-.69-1.856-1.504l-16.02-76.029-.038 76.01c-.416 1.37-1.005 1.438-1.861 1.523zm96.074 0h-12.685c-1.596-.156-1.759-.493-1.898-1.892V482.134c.157-1.594.496-1.757 1.898-1.894 7.534 0 15.065-.037 22.599 0 6.25.099 12.512 2.624 15.892 8.191 2.308 3.802 3.112 8.335 3.161 12.717.082 21.112.104 42.227-.002 63.339-.092 6.069-1.6 12.16-5.562 16.715 0 0 1.595 1.306 2.75 3.172 3.174 5.132 2.804 11.676 2.814 17.972v67.632c-.157 1.591-.493 1.754-1.898 1.892h-12.683c-1.599-.156-1.762-.493-1.899-1.892 0-24.501.177-49.001-.002-73.5a11.947 11.947 0 0 0-.172-1.925c-.414-2.39-2.219-4.807-4.994-4.859h-5.421v80.284c-.158 1.591-.495 1.754-1.898 1.892zM641.107 537.31h-5.324c-3.278.021-5.194 3.531-5.263 6.784a7426.05 7426.05 0 0 0 0 104.906c.005.645.062 1.289.171 1.925.415 2.389 2.22 4.806 4.995 4.857l5.421.002V537.31zm119.917 24.072c0 22.288-.155 44.574.002 66.86.004.2.011.399.021.6.324 4.768 7.892 9.128 10.058 2.665.376-1.118.499-2.301.507-3.477v-56.369c.157-1.592.495-1.755 1.898-1.893h12.684c1.597.157 1.76.492 1.899 1.893 0 19.608.216 39.218-.004 58.824-.188 9.875-6.448 20.501-19.05 20.698-8.089.041-16.676-.58-21.313-8.205-2.319-3.814-3.13-8.352-3.181-12.771-.2-50.825-.2-101.65 0-152.475.114-9.979 6.191-20.769 19.055-20.975 1.812-.01 3.625-.01 5.439 0 6.251.1 12.515 2.623 15.895 8.208 2.31 3.815 3.107 8.363 3.159 12.767l-.037 82.127c-.254.834-.504 1.391-1.862 1.523h-25.17zM581.169 458.299c.691.367 1.091.948 1.171 1.747 0 55.604-.418 111.21.002 166.812.006.284.018.566.039.848.36 4.628 8.123 9.025 10.139 2.088.3-1.028.401-2.095.408-3.162V460.046c.157-1.592.496-1.755 1.898-1.892h12.685c1.597.156 1.76.493 1.898 1.892 0 56.348.637 112.698-.004 169.042-.188 9.875-6.448 20.499-19.051 20.696-6.087.03-12.087-.839-16.348-5.295 0 0-5.762 5.175-10.844 5.295-8.032.064-16.553-.58-21.188-8.205-2.321-3.815-3.132-8.363-3.183-12.771l.036-169.131c.418-1.372 1.004-1.439 1.862-1.523h12.685c1.596.156 1.759.493 1.898 1.892 0 55.6-.387 111.201 0 166.799.105 4.835 6.531 9.796 9.572 4.378.78-1.39 1.004-3.021 1.015-4.591V460.046c.157-1.592.496-1.755 1.899-1.892l13.055.037.356.108zm112.458 191.485h-29.515c-1.597-.155-1.76-.493-1.899-1.894V460.046c.158-1.592.496-1.755 1.899-1.892h12.685l.37.037c.837.252 1.395.502 1.528 1.855v173.651l15.302.038c1.376.417 1.445 1.002 1.528 1.855v12.3c-.157 1.594-.493 1.757-1.898 1.894zm115.574-153.389v77.212c3.098 0 6.507.67 8.519-1.047 1.629-1.389 2.025-3.716 2.068-5.739.154-21.213.154-42.427 0-63.64a11.947 11.947 0 0 0-.172-1.925c-.414-2.389-2.221-4.808-4.994-4.859-1.807-.011-3.614-.002-5.421-.002zm-42.938-23.483c-3.322.063-5.216 3.699-5.239 6.995v65.389h10.588c0-21.866.153-43.733 0-65.6a14.289 14.289 0 0 0-.052-.993 11.723 11.723 0 0 0-.121-.933c-.428-2.463-2.162-4.878-5.176-4.858zm-82.911-29.251H670.67c-1.596-.157-1.76-.494-1.898-1.893V277.063c.157-1.592.493-1.755 1.898-1.893h12.682c.124.014.249.025.373.038 1.373.417 1.442 1.001 1.526 1.855v164.705c-.156 1.592-.494 1.755-1.899 1.893zm81.29 0h-22.303c-1.596-.157-1.76-.494-1.897-1.893V253.924c.157-1.593.493-1.755 1.897-1.893 7.532 0 15.065-.038 22.597.001 6.765.107 13.47 3.062 16.696 9.66 1.704 3.487 2.314 7.395 2.357 11.247.18 50.008.566 100.02-.002 150.024-.19 9.942-6.362 20.63-19.345 20.698zm-131.194-202.53c.691.369 1.093.95 1.171 1.75 0 55.603-.409 111.209.003 166.81.007.282.016.564.039.846.361 4.631 8.122 9.03 10.14 2.089.298-1.027.4-2.094.408-3.159V242.88c.158-1.592.494-1.754 1.897-1.893h12.686c1.596.157 1.759.494 1.898 1.893 0 56.255.216 112.509-.002 168.761-.112 9.886-6.132 20.773-19.053 20.974-6.089.033-12.089-.836-16.348-5.294 0 0-5.764 5.177-10.846 5.296-8.025.063-16.553-.579-21.188-8.204-2.319-3.814-3.13-8.351-3.182-12.772l.037-169.13c.415-1.372 1.004-1.438 1.86-1.524h12.685c1.597.157 1.759.494 1.898 1.893 0 55.6-.395 111.2.002 166.798.104 4.852 6.574 9.715 9.572 4.379.778-1.389 1.003-3.022 1.015-4.59V242.88c.156-1.592.493-1.754 1.898-1.893l13.053.036.357.108zm73.398 191.486h-12.684c-1.596-.157-1.759-.492-1.898-1.892V242.88c.158-1.592.494-1.754 1.898-1.893h11.142l.37.036c.988.299-.025 1.689 3.191.57 8.626-3.003 19.317.284 23.765 7.598 2.32 3.815 3.133 8.352 3.182 12.772l-.036 169.131c-.252.835-.504 1.391-1.86 1.523h-12.685c-1.597-.157-1.76-.492-1.898-1.892 0-55.598.404-111.199-.003-166.795a14.2 14.2 0 0 0-.05-.99c-.423-4.593-8.157-8.742-10.129-1.961-.298 1.027-.401 2.095-.408 3.161v166.585c-.156 1.591-.493 1.754-1.897 1.892zm50.076-164.43v159.387c2.826 0 5.904.577 7.947-.653 2.094-1.262 2.594-4.001 2.639-6.201.339-48.583.339-97.167 0-145.75a14.318 14.318 0 0 0-.05-.993 11.698 11.698 0 0 0-.121-.932c-.415-2.395-2.234-4.807-4.996-4.858-1.807-.011-3.614 0-5.419 0zm-79.772-20.771c10.246.195 17.76 14.725 9.23 23.031-7.719 7.517-24.688 1.214-22.712-11.646.966-6.29 6.882-11.426 13.482-11.385z" fill="#616B68" />
  <path id="bird-shadow" fill-rule="evenodd" clip-rule="evenodd" d="M45.158 84.964s14.482 47.291 38.262 69.161c23.782 21.868 89.617 97.273 92.309 108.95 2.699 11.676-1.235 9.838-3.831 12.961-2.594 3.122-42.806 10.79-42.806 10.79s.171 19.001 5.598 26.021c5.428 7.021 19.298 13.398 19.298 13.398s9.25-17.877 37.671-25.366c28.432-7.491 40.935-12.223 47.084-17.3 6.132-5.077 40.504-37.55 51.879-40.425 11.374-2.877 10.3-7.057 10.3-7.057s-4.776 1.403-15.637-12.64c-10.861-14.04-26.825-6.918-26.825-6.918s14.271-17.386 17.105-26.894c2.835-9.507-.209-44.604-11.307-46.254-11.081-1.65-58.161 71.322-58.161 71.322s-17.464-48.725-70.956-81.525c-53.49-32.801-90.003-53.314-90.003-53.314l.02 5.09z" fill="#616B68" fill-opacity=".1" />
  <path id="bird" fill-rule="evenodd" clip-rule="evenodd" d="M56.596 67.28s12.542 47.84 35.41 70.657c22.871 22.815 85.578 100.829 87.791 112.606 2.22 11.776-1.635 9.78-4.356 12.794-2.719 3.015-43.211 9.044-43.211 9.044s-.604 18.992 4.533 26.227c5.137 7.235 18.736 14.17 18.736 14.17s9.971-17.486 38.673-23.816c28.714-6.331 41.399-10.551 47.751-15.375 6.334-4.824 42.001-35.875 53.484-38.286 11.482-2.412 10.579-6.633 10.579-6.633s-4.83 1.208-15.109-13.264c-10.279-14.47-26.52-8.001-26.52-8.001s14.967-16.792 18.187-26.177c3.22-9.385 1.61-44.576-9.412-46.675-11.005-2.098-61.02 68.902-61.02 68.902s-15.463-49.393-67.574-84.337C92.429 84.172 56.783 62.194 56.783 62.194l-.187 5.086z" fill="#616B68" /></svg>