<svg width="128" height="128" viewBox="0 0 128 128" fill="none" xmlns="http://www.w3.org/2000/svg">
<circle cx="64" cy="64" r="64" fill="white"/>
<path fill-rule="evenodd" clip-rule="evenodd" d="M64 49.9344C57.8162 49.9344 53.9513 53.0601 52.4053 59.3115C54.7243 56.1858 57.4297 55.0136 60.5216 55.7951C62.2857 56.2409 63.5466 57.5347 64.9423 58.9669C67.2159 61.2999 69.8473 64 75.5947 64C81.7785 64 85.6434 60.8743 87.1894 54.6229C84.8704 57.7486 82.165 58.9208 79.0731 58.1393C77.309 57.6935 76.0481 56.3997 74.6524 54.9675C72.3788 52.6345 69.7475 49.9344 64 49.9344ZM52.4053 64C46.2215 64 42.3566 67.1257 40.8107 73.3771C43.1296 70.2514 45.835 69.0793 48.9269 69.8607C50.691 70.3066 51.9519 71.6003 53.3476 73.0325C55.6212 75.3655 58.2526 78.0657 64 78.0657C70.1838 78.0657 74.0487 74.94 75.5947 68.6886C73.2758 71.8143 70.5703 72.9864 67.4784 72.205C65.7143 71.7592 64.4534 70.4654 63.0578 69.0332C60.7842 66.7002 58.1528 64 52.4053 64Z" fill="url(#paint0_linear)"/>
<defs>
<linearGradient id="paint0_linear" x1="39.5224" y1="49.9344" x2="87.4465" y2="77.2676" gradientUnits="userSpaceOnUse">
<stop stop-color="#2298BD"/>
<stop offset="1" stop-color="#0ED7B5"/>
</linearGradient>
</defs>
</svg>
