<svg class="w-40 -mt-1 h-auto text-primary-400" fill="none" xmlns="http://www.w3.org/2000/svg" viewBox="0 0 60 10"><path d="M6.016 8.592a.5.5 0 00.48.362h1.1a.5.5 0 00.479-.356l1.584-5.276a.5.5 0 00-.48-.644h-.737a.5.5 0 00-.485.379L6.936 7.13 5.847 3.05a.5.5 0 00-.483-.372H4.57a.5.5 0 00-.483.37l-1.1 4.082-1.01-4.072a.5.5 0 00-.485-.38H.755a.5.5 0 00-.48.643L1.85 8.597a.5.5 0 00.48.357h1.1a.5.5 0 00.48-.36l1.059-3.66 1.048 3.658zM10.105 8.454a.5.5 0 00.5.5h.656a.5.5 0 00.5-.5V3.178a.5.5 0 00-.5-.5h-.655a.5.5 0 00-.5.5v5.276zm-.144-7.288c0 .54.42.948.96.948.553 0 .973-.408.973-.948s-.42-.948-.973-.948c-.54 0-.96.408-.96.948zM15.89 2.522c-.816 0-1.416.456-1.68.888v-.232a.5.5 0 00-.5-.5h-.62a.5.5 0 00-.5.5v5.276a.5.5 0 00.5.5h.656a.5.5 0 00.5-.5V5.186c0-.672.432-1.176 1.116-1.176.564 0 1.044.432 1.044 1.128v3.316a.5.5 0 00.5.5h.656a.5.5 0 00.5-.5V5.33c0-1.332-.384-2.808-2.172-2.808zM24.97.778a.5.5 0 00-.5-.5h-.657a.5.5 0 00-.5.5v2.56c-.156-.216-.78-.816-1.86-.816-1.8 0-2.976 1.356-2.976 3.3 0 1.932 1.272 3.288 3.072 3.288 1.068 0 1.692-.6 1.86-.804v.148a.5.5 0 00.5.5h.56a.5.5 0 00.5-.5V.778zM23.36 5.834c0 .996-.6 1.812-1.608 1.812-.936 0-1.608-.696-1.608-1.812 0-1.092.648-1.848 1.608-1.848.912 0 1.608.672 1.608 1.848zM31.155 8.592a.5.5 0 00.48.362h1.1a.5.5 0 00.479-.356l1.583-5.276a.5.5 0 00-.479-.644h-.737a.5.5 0 00-.485.379L32.075 7.13l-1.09-4.08a.5.5 0 00-.482-.372h-.793a.5.5 0 00-.483.37l-1.1 4.082-1.01-4.072a.5.5 0 00-.486-.38h-.738a.5.5 0 00-.479.643l1.574 5.276a.5.5 0 00.48.357h1.099a.5.5 0 00.48-.36l1.06-3.66 1.048 3.658zM34.884 7.01c0 1.32 1.08 2.1 2.352 2.1.72 0 1.2-.216 1.524-.564l.01.036a.5.5 0 00.483.372h.58a.5.5 0 00.5-.5V4.982c0-1.404-.6-2.46-2.617-2.46a4.74 4.74 0 00-2.08.514c-.23.117-.296.403-.171.629l.168.305c.131.236.425.323.677.225a3.403 3.403 0 011.226-.245c.732 0 1.14.372 1.14.924v.408c-.228-.156-.72-.348-1.356-.348-1.464 0-2.436.84-2.436 2.076zm1.656-.048c0-.516.444-.876 1.08-.876.636 0 1.092.324 1.092.876 0 .528-.456.864-1.08.864-.624 0-1.092-.348-1.092-.864zM41.08 8.454a.5.5 0 00.5.5h.657a.5.5 0 00.5-.5V.778a.5.5 0 00-.5-.5h-.657a.5.5 0 00-.5.5v7.676zM43.565 8.454a.5.5 0 00.5.5h.656a.5.5 0 00.5-.5v-2.74l1.953 3.012a.5.5 0 00.42.228h.717a.5.5 0 00.411-.785L46.89 5.522l1.582-2.037a.5.5 0 00-.395-.807h-.591a.5.5 0 00-.398.197l-1.866 2.443V.778a.5.5 0 00-.5-.5h-.656a.5.5 0 00-.5.5v7.676zM49.136 5.834c0 1.884 1.284 3.276 3.3 3.276 1.217 0 1.995-.57 2.393-1.03.161-.187.102-.46-.095-.609l-.331-.251c-.228-.173-.555-.115-.78.06-.263.205-.647.39-1.163.39-.924 0-1.596-.6-1.632-1.44h4.056a.363.363 0 00.372-.36c0-2.052-1.104-3.348-3.048-3.348-1.788 0-3.072 1.416-3.072 3.312zm1.74-.684c.072-.72.576-1.272 1.356-1.272.756 0 1.308.504 1.344 1.272h-2.7zM59.043 3.022c0-.276-.227-.507-.495-.443a1.776 1.776 0 00-1.233 1.011v-.412a.5.5 0 00-.5-.5h-.62a.5.5 0 00-.5.5v5.276a.5.5 0 00.5.5h.656a.5.5 0 00.5-.5V6.218c0-1.064.332-1.779 1.195-1.967.27-.058.497-.273.497-.549v-.68z" fill="currentColor"/></svg>