<svg fill="none" xmlns="http://www.w3.org/2000/svg" viewBox="0 0 128 128"><circle cx="64" cy="64" r="64" fill="#000"/><path fill="#fff" d="M22.084 28.411h82.363v72.195H22.084z"/><path fill-rule="evenodd" clip-rule="evenodd" d="M17 64v37.544a2 2 0 002 2h90a2 2 0 002-2V26.456a2 2 0 00-2-2H19a2 2 0 00-2 2V64zm21.34-28.482c.657.415.782 3.825.904 24.65.078 13.294-.05 24.913-.284 25.821-.412 1.598-.522 1.657-3.36 1.806-1.726.09-3.23-.092-3.654-.444-.6-.497-.719-4.12-.719-21.689V44.57l-1.23.31c-.676.169-1.574.175-1.994.014-.962-.369-1.498-3.54-.94-5.552.392-1.411.782-1.627 5.215-2.89 5.68-1.616 5.12-1.53 6.063-.934zm18.292 25.896c0 21.233-.116 25.437-.72 25.937-.422.352-1.929.534-3.662.444-2.648-.139-2.979-.281-3.295-1.425-.193-.699-.374-10.39-.401-21.535l-.051-20.265-1.32.331c-.75.19-1.625.076-2.032-.26-.99-.823-.96-5.733.041-6.563 1.25-1.038 9.543-2.969 10.551-2.457.829.421.89 2.17.89 25.793zm15.462-25.595c.646.647.798 2.098.798 7.626v6.828h2.224c2.682 0 3.504.821 3.504 3.504 0 2.75-.37 3.105-3.218 3.105h-2.51L72.9 67.94c.008 13.15.1 13.48 3.814 13.854l2.53.255v5.592l-3.812.162c-4.83.205-6.638-.655-8.247-3.923-1.085-2.201-1.163-3.07-1.326-14.669l-.173-12.329H64.48c-1.403 0-2.258-1.321-2.258-3.489 0-1.707 1.135-3.12 2.506-3.12 1.06 0 1.547-2.873 1.554-9.165.005-4.673.772-6.088 3.3-6.088.942 0 2.072.36 2.512.8zm15.15 15.16c.576.577 3.35 11.635 4.769 19.013.176.918.392 1.599.478 1.512.087-.086.969-4.587 1.96-10 .993-5.415 2.063-10.156 2.38-10.538.71-.856 4.092-.913 4.921-.083.336.335.61 1.078.61 1.65 0 2.006-7.155 37.987-7.948 39.971-.44 1.102-1.509 2.6-2.373 3.327-1.395 1.175-1.909 1.299-4.585 1.105-3.36-.243-4.402-1.09-4.402-3.579 0-2.654.798-3.475 3.03-3.118 1.956.313 1.98.297 2.6-1.772.588-1.963.376-3.066-3.518-18.334-2.28-8.934-4.144-16.783-4.144-17.442 0-.66.274-1.473.61-1.808.836-.837 4.746-.77 5.613.096z" fill="#000"/></svg>