<svg fill="none" xmlns="http://www.w3.org/2000/svg" viewBox="0 0 128 128"><circle cx="64" cy="64" r="64" fill="#fff"/><path d="M82.089 51.687l-.03-.012c-.016-.007-.033-.013-.048-.028a.231.231 0 01-.059-.195l1.625-9.92 7.618 7.61-7.923 3.368a.173.173 0 01-.07.013h-.031a.218.218 0 01-.042-.036 3.606 3.606 0 00-1.04-.8zm11.05-.604l8.145 8.136c1.692 1.692 2.539 2.536 2.847 3.514.047.145.085.29.114.439l-19.466-8.235a2.066 2.066 0 00-.032-.013c-.078-.031-.168-.067-.168-.147 0-.08.093-.117.17-.149l.026-.01 8.363-3.535zm10.774 14.7c-.42.79-1.24 1.608-2.627 2.996l-9.183 9.171-11.878-2.47-.063-.013c-.105-.017-.217-.036-.217-.13a3.578 3.578 0 00-1.376-2.505c-.049-.048-.036-.123-.021-.193 0-.01 0-.02.004-.03l2.234-13.698.008-.047c.013-.105.032-.226.126-.226a3.64 3.64 0 002.438-1.396c.019-.021.032-.044.057-.057.067-.032.147 0 .216.03l20.28 8.568h.002zM89.99 80.06L74.89 95.145l2.585-15.87.004-.021a.285.285 0 01.013-.061c.02-.05.075-.071.128-.092l.025-.01a3.887 3.887 0 001.46-1.086c.051-.059.112-.116.19-.126a.189.189 0 01.06 0l10.634 2.183.002-.002zM71.693 98.338l-1.703 1.7L51.171 72.87a.78.78 0 00-.02-.03c-.03-.04-.062-.079-.055-.125 0-.034.023-.063.046-.088l.021-.028c.057-.084.105-.168.158-.258l.042-.073.006-.007c.03-.05.057-.098.107-.126.044-.02.105-.012.154-.002l20.849 4.295a.344.344 0 01.16.07c.027.027.033.056.04.09a3.687 3.687 0 002.16 2.466c.058.03.033.095.006.164a.492.492 0 00-.032.095c-.262 1.595-2.515 15.32-3.12 19.025zm-3.556 3.549c-1.255 1.241-1.995 1.898-2.83 2.163-.826.26-1.71.26-2.535 0-.98-.311-1.826-1.155-3.518-2.847l-18.9-18.878 4.937-7.647a.314.314 0 01.084-.1c.053-.037.129-.02.192 0a5.12 5.12 0 003.442-.173c.057-.021.113-.036.158.004a.4.4 0 01.058.067l18.912 27.413v-.002zM38.533 80.505l-4.336-4.33 8.562-3.65a.177.177 0 01.07-.014c.07 0 .113.072.15.137.087.132.178.26.274.386l.027.033c.025.036.009.072-.017.105l-4.728 7.333h-.002zm-6.254-6.247l-5.485-5.48c-.933-.931-1.61-1.607-2.08-2.189l16.677 3.456.063.01c.103.017.216.036.216.132 0 .105-.123.154-.229.194l-.048.02-9.114 3.857zm-8.524-10.486c.02-.353.083-.702.19-1.039.31-.978 1.155-1.822 2.849-3.514l7.019-7.011c3.232 4.685 6.472 9.364 9.721 14.037.057.076.12.16.055.223-.307.338-.614.707-.83 1.108a.336.336 0 01-.105.13c-.027.017-.057.01-.088.004h-.005l-18.806-3.94v.002zm11.937-13.44l9.433-9.428c.89.388 4.12 1.75 7.005 2.968 2.185.923 4.177 1.763 4.804 2.036.063.025.12.05.147.113.017.038.008.087 0 .126a4.2 4.2 0 001.099 3.838c.063.063 0 .153-.055.23l-.03.045-9.582 14.826a.29.29 0 01-.09.105c-.05.032-.122.017-.181.002a4.784 4.784 0 00-1.141-.155c-.345 0-.719.063-1.097.132h-.002c-.042.007-.08.015-.114-.01a.442.442 0 01-.094-.107L35.69 50.33h.002zM47.036 39l12.218-12.205c1.692-1.69 2.538-2.536 3.518-2.845.824-.26 1.71-.26 2.534 0 .98.309 1.826 1.155 3.518 2.845l2.648 2.645-8.69 13.443a.327.327 0 01-.086.1c-.052.037-.126.022-.19 0a4.412 4.412 0 00-4.034.778c-.057.058-.14.025-.212-.007-1.135-.493-9.961-4.22-11.224-4.754zm26.281-7.717l8.024 8.015-1.934 11.96v.032a.28.28 0 01-.017.08c-.02.042-.063.05-.105.063a3.848 3.848 0 00-1.151.573.325.325 0 00-.042.036c-.023.025-.046.048-.084.052a.242.242 0 01-.09-.014L65.69 46.89l-.023-.01c-.078-.032-.17-.07-.17-.15a4.61 4.61 0 00-.652-1.92c-.059-.096-.124-.197-.074-.296l8.545-13.231zm-8.263 18.066l11.462 4.849c.063.03.132.056.16.121.01.04.01.081 0 .12a2.844 2.844 0 00-.064.552v.322c0 .08-.082.113-.157.144l-.023.009c-1.816.774-25.492 10.859-25.528 10.859-.035 0-.073 0-.109-.036-.063-.063 0-.151.057-.23l.03-.043L60.3 51.448l.017-.025c.055-.089.118-.187.219-.187l.094.015c.215.029.404.056.595.056a4.257 4.257 0 003.552-1.883.336.336 0 01.071-.084c.057-.042.14-.02.206.009zm-13.126 19.28l25.806-10.993s.038 0 .074.036c.14.14.26.235.376.323l.057.036c.052.03.105.063.11.117 0 .021 0 .034-.005.053l-2.21 13.565-.01.055c-.014.105-.029.224-.127.224a3.636 3.636 0 00-2.886 1.778l-.01.017c-.03.048-.057.094-.105.12-.044.02-.101.012-.148.002l-20.58-4.24c-.02-.005-.319-1.09-.342-1.092z" fill="url(#netlify0_radial)"/><defs><radialGradient id="netlify0_radial" cx="0" cy="0" r="1" gradientUnits="userSpaceOnUse" gradientTransform="matrix(0 80.4013 -92.9284 0 21.053 62.864)"><stop stop-color="#20C6B7"/><stop offset="1" stop-color="#4D9ABF"/></radialGradient></defs></svg>