<svg width="128" height="128" viewBox="0 0 128 128" fill="none" xmlns="http://www.w3.org/2000/svg">
<circle cx="64" cy="64" r="64" fill="white"/>
<path fill-rule="evenodd" clip-rule="evenodd" d="M64 38.05C52.5914 38.05 45.461 43.8167 42.6088 55.35C46.8871 49.5834 51.8784 47.4209 57.5827 48.8625C60.8373 49.6851 63.1636 52.072 65.7384 54.7143C69.933 59.0184 74.7877 64 85.3912 64C96.7999 64 103.93 58.2334 106.782 46.7C102.504 52.4667 97.5129 54.6292 91.8086 53.1875C88.554 52.365 86.2277 49.9781 83.6528 47.3358C79.4583 43.0316 74.6036 38.05 64 38.05ZM42.6088 64C31.2002 64 24.0698 69.7667 21.2177 81.3C25.4959 75.5333 30.4872 73.3708 36.1915 74.8125C39.4461 75.6351 41.7724 78.022 44.3472 80.6642C48.5418 84.9684 53.3965 89.95 64 89.95C75.4087 89.95 82.5391 84.1833 85.3912 72.65C81.113 78.4167 76.1217 80.5792 70.4174 79.1375C67.1628 78.315 64.8365 75.928 62.2616 73.2858C58.0671 68.9816 53.2124 64 42.6088 64Z" fill="url(#paint0_linear)"/>
<defs>
<linearGradient id="paint0_linear" x1="18.8409" y1="38.05" x2="107.257" y2="88.4775" gradientUnits="userSpaceOnUse">
<stop stop-color="#2298BD"/>
<stop offset="1" stop-color="#0ED7B5"/>
</linearGradient>
</defs>
</svg>
