<svg width="100%" height="100%" viewBox="0 0 128 128" fill="none" xmlns="http://www.w3.org/2000/svg">
<path id="disc" d="M64 104C86.0914 104 104 86.0914 104 64C104 41.9086 86.0914 24 64 24C41.9086 24 24 41.9086 24 64C24 86.0914 41.9086 104 64 104Z" fill="#FBC756"/>
<path id="bird" fill-rule="evenodd" clip-rule="evenodd" d="M17 16.3195C17 16.3195 20.2687 28.7288 26.2287 34.6473C32.1892 40.5653 48.5316 60.8018 49.1084 63.8566C49.6871 66.9113 48.6824 66.3935 47.9732 67.1754C47.2645 67.9574 36.7116 69.5214 36.7116 69.5214C36.7116 69.5214 36.5543 74.4478 37.8929 76.3245C39.2319 78.2011 42.7758 80 42.7758 80C42.7758 80 45.3745 75.4642 52.8548 73.8224C60.3383 72.1801 63.6443 71.0854 65.2996 69.8341C66.9503 68.5829 76.2459 60.5285 79.2384 59.9031C82.2308 59.2772 81.9957 58.1825 81.9957 58.1825C81.9957 58.1825 80.7369 58.4957 78.0579 54.7419C75.379 50.9885 71.1462 52.6665 71.1462 52.6665C71.1462 52.6665 75.047 48.3106 75.8862 45.8763C76.7254 43.4419 76.3058 34.3135 73.4332 33.7691C70.5652 33.2248 57.5302 51.6419 57.5302 51.6419C57.5302 51.6419 53.5003 38.8297 39.9194 29.7653C26.3389 20.701 17.0489 15 17.0489 15L17 16.3195Z" fill="#4D6774"/>
</svg>
