<svg class="w-16 h-16 mr-3" viewBox="0 0 64 64" fill="none" xmlns="http://www.w3.org/2000/svg"><path d="M42.754 20.004C45.814 10.598 55.314 8.47 64 14.053c-11.6-1.776-14.41 6.663-15.21 16.54-4.194 25.454-29.673 28.777-37.362 13.725C7.99 37.59 9.416 28.443 0 30.593c11.848-9.113 10.894 6.992 18.211 11.676 14.545 9.31 21.727-13.607 24.543-22.265z" fill="url(#paint0_linear)"/><path d="M12.398 19.311c11.53-1.54 24.365 14.184 18.018 20.953-2.82 3.008-8.318 3.011-11.339 0-5.177-5.16 2.776-18.347-6.68-20.953z" fill="url(#paint1_linear)"/><path d="M12.398 19.311c11.53-1.54 24.365 14.184 18.018 20.953-2.82 3.008-8.318 3.011-11.339 0-5.177-5.16 2.776-18.347-6.68-20.953z" fill="url(#paint2_linear)"/><defs><linearGradient id="paint0_linear" x1="32" y1="11" x2="32" y2="53.093" gradientUnits="userSpaceOnUse"><stop stop-color="#FFF3C4"/><stop offset="1" stop-color="#F2BD43"/></linearGradient><linearGradient id="paint1_linear" x1="23.692" y1="21.282" x2="18.583" y2="40.888" gradientUnits="userSpaceOnUse"><stop stop-color="#FADB5F"/><stop offset="1" stop-color="#F2BD43"/></linearGradient><linearGradient id="paint2_linear" x1="23.692" y1="21.282" x2="18.583" y2="40.888" gradientUnits="userSpaceOnUse"><stop stop-color="#FFF3C4"/><stop offset="1" stop-color="#F2BD43"/></linearGradient></defs></svg>