<svg xmlns="http://www.w3.org/2000/svg" width="100%" height="100%" viewBox="0 0 81 90" fill="none">
  <path fill="url(#logo0_linear)" d="M60.63 44.806l-9.73-11.49 17.468-7.503-7.737 18.993z"/>
  <path fill="url(#logo1_linear)" d="M60.63 44.806H25.928l11.49-27.435L60.63 44.806z"/>
  <path fill="url(#logo2_linear)" d="M3.37 17.3l34.047.071-11.49 27.435L3.37 17.3z"/>
  <path fill="url(#logo3_linear)" d="M60.63 44.806L31.087 66.144l-5.159-21.338h34.704z"/>
  <path fill="url(#logo4_linear)" d="M25.928 44.806L9.699 89.944l23.016-17.142-6.787-27.996z"/>
  <path fill="url(#logo5_linear)" d="M76.72 39.53l-8.35-13.717-4.876 11.962L76.72 39.53z"/>
  <path fill="#FD7BA4" d="M36.648 17.385h.77L25.983 44.807l10.664-27.422z"/>
  <path fill="#821736" d="M31.73 65.676l-.635.457-5.123-21.338 5.758 20.88zM50.918 33.31l.55-.23 9.155 11.722-9.705-11.493zM63.982 37.84l-.486-.067 4.873-11.956-4.387 12.022z"/>
  <defs>
    <linearGradient id="logo0_linear" x1="68.368" x2="53.703" y1="25.813" y2="36.821" gradientUnits="userSpaceOnUse">
      <stop stop-color="#DE4675"/>
      <stop offset="1" stop-color="#A1274B"/>
    </linearGradient>
    <linearGradient id="logo1_linear" x1="36.362" x2="36.09" y1="44.806" y2="18.664" gradientUnits="userSpaceOnUse">
      <stop stop-color="#DE4675"/>
      <stop offset="1" stop-color="#A1274B"/>
    </linearGradient>
    <linearGradient id="logo2_linear" x1="31.437" x2="3.416" y1="30.268" y2="17.02" gradientUnits="userSpaceOnUse">
      <stop stop-color="#DE4675"/>
      <stop offset="1" stop-color="#A1274B"/>
    </linearGradient>
    <linearGradient id="logo3_linear" x1="31.074" x2="50.382" y1="65.054" y2="48.565" gradientUnits="userSpaceOnUse">
      <stop stop-color="#DE4675"/>
      <stop offset="1" stop-color="#A1274B"/>
    </linearGradient>
    <linearGradient id="logo4_linear" x1="28.741" x2="7.786" y1="60.868" y2="86.648" gradientUnits="userSpaceOnUse">
      <stop stop-color="#DE4675"/>
      <stop offset="1" stop-color="#A1274B"/>
    </linearGradient>
    <linearGradient id="logo5_linear" x1="68.891" x2="67.248" y1="38.475" y2="26.03" gradientUnits="userSpaceOnUse">
      <stop stop-color="#DE4675"/>
      <stop offset="1" stop-color="#A1274B"/>
    </linearGradient>
  </defs>
</svg>