<svg width="64" height="64" viewBox="0 0 64 64" fill="none" xmlns="http://www.w3.org/2000/svg">
<path d="M42.7853 20.1562C45.8901 11.5094 55.3645 9.61063 63.9813 14.8138C52.4394 13.1003 49.9205 22 48.7314 29.9536C44.3982 53.3811 19.0027 56.2731 11.4368 42.3513C8.05512 36.1288 9.53045 27.7096 0.139361 29.6277C11.9953 21.31 10.9459 36.1438 18.2053 40.5089C32.6337 49.1848 39.9274 28.1152 42.7853 20.1562Z" fill="url(#paint0_linear)"/>
<path d="M12.5437 19.3355C18.8082 20.9858 20.3026 28.3989 20.5348 33.7864C20.6847 37.2636 22.5633 41.0866 26.0114 40.6592C27.6252 40.4592 29.0666 39.7966 30.1999 38.728C36.6671 32.63 24.0086 17.9899 12.5437 19.3355Z" fill="url(#paint1_linear)"/>
<defs>
<linearGradient id="paint0_linear" x1="32.1297" y1="11.7871" x2="31.8696" y2="50.575" gradientUnits="userSpaceOnUse">
<stop stop-color="#FFF3C4"/>
<stop offset="1" stop-color="#F2BD43"/>
</linearGradient>
<linearGradient id="paint1_linear" x1="23.7527" y1="21.232" x2="19.2025" y2="39.4744" gradientUnits="userSpaceOnUse">
<stop stop-color="#FFF3C4"/>
<stop offset="1" stop-color="#F2BD43"/>
</linearGradient>
</defs>
</svg>
