<svg width="208" height="48" fill="none" xmlns="http://www.w3.org/2000/svg"><path d="M64.146 34.701h3.612l2.751-10.008h.201L73.462 34.7h3.601l4.156-14.81h-3.535l-2.541 10.356H75L72.363 19.89h-3.487l-2.637 10.413h-.134l-2.58-10.413H60l4.146 14.81zM83.634 34.701h3.459v-14.81h-3.459v14.81zm1.739-16.912c1.099 0 1.997-.848 1.997-1.89 0-1.05-.898-1.899-1.997-1.899-1.108 0-2.007.848-2.007 1.9 0 1.04.899 1.89 2.007 1.89zM94.108 26.023c0-2.14 1.28-3.374 3.105-3.374 1.786 0 2.856 1.186 2.856 3.162v8.89h3.459v-9.43c.009-3.548-1.997-5.573-5.026-5.573-2.197 0-3.707 1.061-4.375 2.71h-.172V19.89h-3.306v14.81h3.459v-8.678zM112.489 34.961c2.523 0 3.659-1.513 4.204-2.593h.21V34.7h3.401V14.954h-3.468v7.386h-.143c-.525-1.07-1.605-2.642-4.194-2.642-3.392 0-6.057 2.68-6.057 7.617 0 4.88 2.589 7.646 6.047 7.646zm.965-2.863c-2.283 0-3.487-2.025-3.487-4.802 0-2.757 1.185-4.734 3.487-4.734 2.226 0 3.449 1.86 3.449 4.734 0 2.873-1.242 4.802-3.449 4.802zM127.018 34.701h3.612l2.751-10.008h.201l2.752 10.008h3.601l4.156-14.81h-3.535l-2.541 10.356h-.143l-2.637-10.356h-3.487l-2.637 10.413h-.134l-2.58-10.413h-3.525l4.146 14.81zM150.729 35c2.302 0 3.678-1.09 4.309-2.333h.114V34.7h3.325V24.79c0-3.914-3.162-5.09-5.961-5.09-3.086 0-5.456 1.388-6.22 4.087l3.229.463c.344-1.012 1.319-1.88 3.01-1.88 1.605 0 2.484.83 2.484 2.285v.058c0 1.003-1.042 1.051-3.631 1.33-2.847.31-5.57 1.167-5.57 4.503 0 2.912 2.112 4.455 4.911 4.455zm.898-2.565c-1.443 0-2.474-.665-2.474-1.947 0-1.34 1.156-1.9 2.703-2.122.908-.125 2.723-.356 3.172-.723v1.745c0 1.65-1.318 3.047-3.401 3.047zM165.413 14.954h-3.458v19.747h3.458V14.954zM168.97 34.701h3.458v-4.975l1.261-1.36 4.491 6.335h4.137l-6.019-8.417 5.684-6.393h-4.041l-5.274 5.95h-.239V14.953h-3.458v19.747zM190.18 34.99c3.42 0 5.77-1.687 6.382-4.261l-3.23-.367c-.468 1.254-1.614 1.91-3.105 1.91-2.235 0-3.716-1.485-3.745-4.021h10.223v-1.07c0-5.198-3.096-7.483-6.707-7.483-4.204 0-6.946 3.115-6.946 7.685 0 4.647 2.704 7.607 7.128 7.607zm-3.688-9.092c.105-1.89 1.49-3.48 3.554-3.48 1.987 0 3.325 1.465 3.344 3.48h-6.898zM199.631 34.701h3.458v-8.707c0-1.88 1.405-3.21 3.306-3.21.583 0 1.309.106 1.605.202v-3.21a8.223 8.223 0 0 0-1.242-.097c-1.682 0-3.086.964-3.621 2.68h-.153v-2.468h-3.353v14.81z" fill="#616E7C"/><path d="M15.934 13.631C13.64 5.66 6.514 3.855 0 8.587c8.7-1.505 10.297 5.647 10.897 14.018.431 6.02.881 10.079 4.738 14.374 5.595 6.23 17.463 7.192 22.58-.135 3.35-4.796 1.604-16.35 9.785-14.24-8.886-7.722-10.331 5.447-13.179 10.45-4.846 8.515-12.83 6.61-16.375-1.888-2.267-5.435-.883-11.878-2.512-17.535z" fill="#FC558A"/><path d="M21.904 15.3c7.69 3.09 1.452 13.327 2.594 20.854l7.613-5.679c-1.082-6.66 1.343-16.28-10.207-15.176z" fill="#FC558A"/><path d="M15.934 13.631C13.64 5.66 6.514 3.855 0 8.587c8.7-1.505 10.297 5.647 10.897 14.018.431 6.02.881 10.079 4.738 14.374 5.595 6.23 17.463 7.192 22.58-.135 3.35-4.796 1.604-16.35 9.785-14.24-8.886-7.722-10.331 5.447-13.179 10.45-4.846 8.515-12.83 6.61-16.375-1.888-2.267-5.435-.883-11.878-2.512-17.535z" fill="url(#paint0_linear)"/><path d="M21.904 15.3c7.69 3.09 1.452 13.327 2.594 20.854l7.613-5.679c-1.082-6.66 1.343-16.28-10.207-15.176z" fill="url(#paint1_linear)"/><defs><linearGradient id="paint0_linear" x1="24" y1="6" x2="24" y2="42" gradientUnits="userSpaceOnUse"><stop stop-color="#FF8CBA"/><stop offset="1" stop-color="#E8368F"/></linearGradient><linearGradient id="paint1_linear" x1="29.403" y1="16.618" x2="22.264" y2="35.3" gradientUnits="userSpaceOnUse"><stop stop-color="#FF8CBA"/><stop offset="1" stop-color="#E8368F"/></linearGradient></defs></svg>