<svg role="presentation" fill="none" xmlns="http://www.w3.org/2000/svg" viewBox="0 0 105 130"><g opacity=".6" filter="url(#filter0_f)"><path d="M34.519 49.997l18.36-8.177 22.59 6.326L36.545 75.96l2.189 9.027-30.289 22.558L34.52 49.997z" fill="#821736" fill-opacity=".5"/></g><path d="M76.259 36.917l-12.806-15.12 22.989-9.875-10.183 24.995z" fill="url(#paint0_linear)"/><path d="M76.26 36.918H30.59L45.71.814l30.55 36.104z" fill="url(#paint1_linear)"/><path d="M.905.72L45.71.814 30.59 36.917.905.72z" fill="url(#paint2_linear)"/><path d="M76.258 36.917l-38.88 28.08-6.79-28.08h45.67z" fill="url(#paint3_linear)"/><path d="M30.59 36.917l-21.357 59.4L39.522 73.76 30.59 36.917z" fill="url(#paint4_linear)"/><path d="M97.432 29.974l-10.99-18.052-6.415 15.742 17.405 2.31z" fill="url(#paint5_linear)"/><path d="M44.699.832h1.011L30.665 36.918 44.699.832z" fill="#FD7BA4"/><path d="M38.224 64.382l-.834.602-6.742-28.081 7.576 27.479zM63.477 21.787l.724-.301L76.25 36.911 63.477 21.787zM80.668 27.75l-.64-.087 6.413-15.735-5.773 15.821z" fill="#821736"/><defs><linearGradient id="paint0_linear" x1="86.442" y1="11.922" x2="67.142" y2="26.41" gradientUnits="userSpaceOnUse"><stop stop-color="#DE4675"/><stop offset="1" stop-color="#A1274B"/></linearGradient><linearGradient id="paint1_linear" x1="44.322" y1="36.917" x2="43.964" y2="2.515" gradientUnits="userSpaceOnUse"><stop stop-color="#DE4675"/><stop offset="1" stop-color="#A1274B"/></linearGradient><linearGradient id="paint2_linear" x1="37.841" y1="17.785" x2=".966" y2=".351" gradientUnits="userSpaceOnUse"><stop stop-color="#DE4675"/><stop offset="1" stop-color="#A1274B"/></linearGradient><linearGradient id="paint3_linear" x1="37.363" y1="63.564" x2="62.771" y2="41.864" gradientUnits="userSpaceOnUse"><stop stop-color="#DE4675"/><stop offset="1" stop-color="#A1274B"/></linearGradient><linearGradient id="paint4_linear" x1="34.293" y1="58.054" x2="6.715" y2="91.981" gradientUnits="userSpaceOnUse"><stop stop-color="#DE4675"/><stop offset="1" stop-color="#A1274B"/></linearGradient><linearGradient id="paint5_linear" x1="87.129" y1="28.585" x2="84.967" y2="12.208" gradientUnits="userSpaceOnUse"><stop stop-color="#DE4675"/><stop offset="1" stop-color="#A1274B"/></linearGradient><filter id="filter0_f" x=".444" y="33.82" width="83.025" height="81.727" filterUnits="userSpaceOnUse" color-interpolation-filters="sRGB"><feFlood flood-opacity="0" result="BackgroundImageFix"/><feBlend in="SourceGraphic" in2="BackgroundImageFix" result="shape"/><feGaussianBlur stdDeviation="4" result="effect1_foregroundBlur"/></filter></defs></svg>